<svg width="357" height="51" viewBox="0 0 357 51" fill="none" xmlns="http://www.w3.org/2000/svg">
<rect x="2" y="1.5" width="353" height="48" rx="22.5" fill="#B02F36" stroke="#414141" stroke-width="3"/>
<path d="M74.0426 35.496C73.424 35.9013 72.5386 36.3067 71.3866 36.712C70.256 37.1173 68.8906 37.32 67.2906 37.32C65.5626 37.32 64.1013 36.9573 62.9066 36.232C61.7333 35.4853 60.8373 34.4507 60.2186 33.128C59.6213 31.784 59.3226 30.2373 59.3226 28.488V23.72C59.3226 20.9893 60.0053 18.8453 61.3706 17.288C62.7573 15.7093 64.7626 14.92 67.3866 14.92C68.3466 14.92 69.3493 15.0267 70.3946 15.24C71.4613 15.4533 72.5173 15.8053 73.5626 16.296L72.6666 18.696C70.7466 17.9067 68.9973 17.512 67.4186 17.512C65.6693 17.512 64.3573 18.0453 63.4826 19.112C62.6293 20.1573 62.2026 21.6933 62.2026 23.72V28.488C62.2026 30.408 62.64 31.9333 63.5146 33.064C64.3893 34.1947 65.712 34.76 67.4826 34.76C68.1653 34.76 68.8586 34.6853 69.5626 34.536C70.288 34.3867 70.928 34.184 71.4826 33.928V28.072H67.4186V25.608H74.0426V35.496ZM90.5071 36.072C89.5471 36.5413 88.5871 36.8613 87.6271 37.032C86.6671 37.224 85.7818 37.32 84.9711 37.32C82.6885 37.32 80.9818 36.6693 79.8511 35.368C78.7418 34.0667 78.1871 32.2853 78.1871 30.024V28.104C78.1871 25.9067 78.7418 24.1467 79.8511 22.824C80.9818 21.5013 82.5711 20.84 84.6191 20.84C85.7071 20.84 86.6991 21.064 87.5951 21.512C88.5125 21.9387 89.2378 22.6 89.7711 23.496C90.3258 24.3707 90.6031 25.5013 90.6031 26.888C90.6031 27.784 90.4751 28.808 90.2191 29.96H80.7791V30.024C80.7791 31.6453 81.1098 32.872 81.7711 33.704C82.4538 34.536 83.5418 34.952 85.0351 34.952C85.7178 34.952 86.4645 34.8667 87.2751 34.696C88.1071 34.5253 88.9178 34.2587 89.7071 33.896L90.5071 36.072ZM84.6191 23.144C83.3818 23.144 82.4431 23.5493 81.8031 24.36C81.1845 25.1493 80.8431 26.2693 80.7791 27.72H87.9471C88.0111 27.336 88.0431 26.9733 88.0431 26.632C88.0431 25.4373 87.7018 24.5627 87.0191 24.008C86.3578 23.432 85.5578 23.144 84.6191 23.144ZM103.848 36.424C102.653 37.0213 101.384 37.32 100.04 37.32C98.8881 37.32 97.9815 37.0853 97.3201 36.616C96.6801 36.1467 96.2215 35.5173 95.9441 34.728C95.6881 33.9387 95.5601 33.064 95.5601 32.104V23.464H92.8081V21.16H95.5601V16.744H98.1841V21.16H103.368V23.464H98.1841V32.008C98.1841 33.1173 98.3655 33.8853 98.7281 34.312C99.1121 34.7173 99.6988 34.92 100.488 34.92C100.872 34.92 101.267 34.8773 101.672 34.792C102.099 34.6853 102.557 34.5147 103.048 34.28L103.848 36.424ZM119.293 34.824C120.637 34.824 121.672 34.536 122.397 33.96C123.122 33.3627 123.485 32.4987 123.485 31.368C123.485 30.4293 123.229 29.64 122.717 29C122.226 28.36 121.416 27.8693 120.285 27.528L117.693 26.76C116.072 26.2693 114.877 25.5333 114.109 24.552C113.341 23.5493 112.957 22.3227 112.957 20.872C112.957 19.7627 113.17 18.76 113.597 17.864C114.045 16.968 114.749 16.2533 115.709 15.72C116.69 15.1867 117.97 14.92 119.549 14.92C120.509 14.92 121.501 15.0373 122.525 15.272C123.549 15.4853 124.584 15.8373 125.629 16.328L124.733 18.728C123.709 18.28 122.781 17.96 121.949 17.768C121.138 17.5547 120.36 17.448 119.613 17.448C118.397 17.448 117.448 17.704 116.765 18.216C116.104 18.7067 115.773 19.528 115.773 20.68C115.773 21.512 115.997 22.216 116.445 22.792C116.893 23.3467 117.693 23.8053 118.845 24.168L121.437 24.936C124.68 25.896 126.301 27.9653 126.301 31.144C126.301 32.9787 125.746 34.472 124.637 35.624C123.528 36.7547 121.746 37.32 119.293 37.32C118.29 37.32 117.224 37.2027 116.093 36.968C114.984 36.712 113.832 36.3173 112.637 35.784L113.501 33.416C114.632 33.928 115.645 34.2907 116.541 34.504C117.458 34.7173 118.376 34.824 119.293 34.824ZM139.161 36.424C137.966 37.0213 136.697 37.32 135.353 37.32C134.201 37.32 133.294 37.0853 132.633 36.616C131.993 36.1467 131.534 35.5173 131.257 34.728C131.001 33.9387 130.873 33.064 130.873 32.104V23.464H128.121V21.16H130.873V16.744H133.497V21.16H138.681V23.464H133.497V32.008C133.497 33.1173 133.678 33.8853 134.041 34.312C134.425 34.7173 135.011 34.92 135.801 34.92C136.185 34.92 136.579 34.8773 136.985 34.792C137.411 34.6853 137.87 34.5147 138.361 34.28L139.161 36.424ZM154.197 37.16C153.216 37.16 152.426 36.936 151.829 36.488C151.253 36.04 150.848 35.4853 150.613 34.824C149.568 35.7413 148.618 36.392 147.765 36.776C146.912 37.1387 146.058 37.32 145.205 37.32C143.818 37.32 142.794 36.872 142.133 35.976C141.472 35.08 141.141 33.9813 141.141 32.68C141.141 31.8053 141.301 31.0267 141.621 30.344C141.941 29.6613 142.485 29.128 143.253 28.744C144.021 28.3387 145.056 28.136 146.357 28.136C146.933 28.136 147.562 28.1787 148.245 28.264C148.928 28.328 149.621 28.4133 150.325 28.52V26.376C150.325 25.1813 150.058 24.3707 149.525 23.944C149.013 23.496 148.256 23.272 147.253 23.272C145.888 23.272 144.362 23.6453 142.677 24.392L141.845 22.216C142.826 21.768 143.765 21.4267 144.661 21.192C145.557 20.9573 146.464 20.84 147.381 20.84C148.874 20.84 150.016 21.0853 150.805 21.576C151.594 22.0667 152.138 22.7173 152.437 23.528C152.736 24.3387 152.885 25.224 152.885 26.184V33.032C152.885 33.5227 152.981 33.9387 153.173 34.28C153.365 34.6 153.749 34.76 154.325 34.76H154.677V37.16H154.197ZM143.733 32.648C143.733 33.3733 143.904 33.96 144.245 34.408C144.586 34.856 145.077 35.08 145.717 35.08C146.272 35.08 146.912 34.92 147.637 34.6C148.362 34.2587 149.258 33.5867 150.325 32.584V30.568C148.874 30.3333 147.594 30.216 146.485 30.216C145.504 30.216 144.8 30.4187 144.373 30.824C143.946 31.2293 143.733 31.8373 143.733 32.648ZM166.714 23.464C165.754 23.464 164.815 23.6347 163.898 23.976C163.002 24.3173 162.042 24.968 161.018 25.928V37H158.394V21.16H160.89V23.72C161.978 22.6533 162.97 21.9067 163.866 21.48C164.783 21.0533 165.733 20.84 166.714 20.84V23.464ZM178.848 36.424C177.653 37.0213 176.384 37.32 175.04 37.32C173.888 37.32 172.981 37.0853 172.32 36.616C171.68 36.1467 171.221 35.5173 170.944 34.728C170.688 33.9387 170.56 33.064 170.56 32.104V23.464H167.808V21.16H170.56V16.744H173.184V21.16H178.368V23.464H173.184V32.008C173.184 33.1173 173.365 33.8853 173.728 34.312C174.112 34.7173 174.699 34.92 175.488 34.92C175.872 34.92 176.267 34.8773 176.672 34.792C177.099 34.6853 177.557 34.5147 178.048 34.28L178.848 36.424ZM193.788 36.072C192.828 36.5413 191.868 36.8613 190.908 37.032C189.948 37.224 189.063 37.32 188.252 37.32C185.97 37.32 184.263 36.6693 183.132 35.368C182.023 34.0667 181.468 32.2853 181.468 30.024V28.104C181.468 25.9067 182.023 24.1467 183.132 22.824C184.263 21.5013 185.852 20.84 187.9 20.84C188.988 20.84 189.98 21.064 190.876 21.512C191.794 21.9387 192.519 22.6 193.052 23.496C193.607 24.3707 193.884 25.5013 193.884 26.888C193.884 27.784 193.756 28.808 193.5 29.96H184.06V30.024C184.06 31.6453 184.391 32.872 185.052 33.704C185.735 34.536 186.823 34.952 188.316 34.952C188.999 34.952 189.746 34.8667 190.556 34.696C191.388 34.5253 192.199 34.2587 192.988 33.896L193.788 36.072ZM187.9 23.144C186.663 23.144 185.724 23.5493 185.084 24.36C184.466 25.1493 184.124 26.2693 184.06 27.72H191.228C191.292 27.336 191.324 26.9733 191.324 26.632C191.324 25.4373 190.983 24.5627 190.3 24.008C189.639 23.432 188.839 23.144 187.9 23.144ZM208.057 37V34.792C207.076 35.7307 206.18 36.392 205.369 36.776C204.58 37.1387 203.759 37.32 202.905 37.32C201.22 37.32 199.919 36.68 199.001 35.4C198.105 34.12 197.657 32.328 197.657 30.024V28.168C197.657 25.928 198.212 24.1467 199.321 22.824C200.452 21.5013 202.084 20.84 204.217 20.84C204.836 20.84 205.455 20.904 206.073 21.032C206.692 21.16 207.311 21.3413 207.929 21.576V13.32H210.553V37H208.057ZM200.377 30.024C200.377 31.688 200.633 32.9147 201.145 33.704C201.679 34.472 202.468 34.856 203.513 34.856C204.132 34.856 204.772 34.7067 205.433 34.408C206.095 34.088 206.927 33.4373 207.929 32.456V24.008C207.311 23.7307 206.713 23.5387 206.137 23.432C205.561 23.304 204.996 23.24 204.441 23.24C202.991 23.24 201.945 23.6773 201.305 24.552C200.687 25.4267 200.377 26.632 200.377 28.168V30.024ZM220.775 17.864V15.24H236.231V17.864H229.895V37H227.111V17.864H220.775ZM249.876 28.104V30.024C249.876 32.2853 249.289 34.0667 248.116 35.368C246.964 36.6693 245.31 37.32 243.156 37.32C241.022 37.32 239.369 36.6693 238.196 35.368C237.022 34.0667 236.436 32.2853 236.436 30.024V28.104C236.436 25.8853 237.012 24.1253 238.164 22.824C239.337 21.5013 241.001 20.84 243.156 20.84C245.31 20.84 246.964 21.5013 248.116 22.824C249.289 24.1253 249.876 25.8853 249.876 28.104ZM247.156 28.104C247.156 26.5893 246.814 25.4053 246.132 24.552C245.449 23.6773 244.457 23.24 243.156 23.24C241.876 23.24 240.884 23.6773 240.18 24.552C239.497 25.4053 239.156 26.5893 239.156 28.104V30.024C239.156 31.6027 239.497 32.8187 240.18 33.672C240.884 34.5253 241.876 34.952 243.156 34.952C244.457 34.952 245.449 34.5253 246.132 33.672C246.814 32.8187 247.156 31.6027 247.156 30.024V28.104ZM264.276 37V34.792C263.295 35.7307 262.399 36.392 261.588 36.776C260.799 37.1387 259.977 37.32 259.124 37.32C257.439 37.32 256.137 36.68 255.22 35.4C254.324 34.12 253.876 32.328 253.876 30.024V28.168C253.876 25.928 254.431 24.1467 255.54 22.824C256.671 21.5013 258.303 20.84 260.436 20.84C261.055 20.84 261.673 20.904 262.292 21.032C262.911 21.16 263.529 21.3413 264.148 21.576V13.32H266.772V37H264.276ZM256.596 30.024C256.596 31.688 256.852 32.9147 257.364 33.704C257.897 34.472 258.687 34.856 259.732 34.856C260.351 34.856 260.991 34.7067 261.652 34.408C262.313 34.088 263.145 33.4373 264.148 32.456V24.008C263.529 23.7307 262.932 23.5387 262.356 23.432C261.78 23.304 261.215 23.24 260.66 23.24C259.209 23.24 258.164 23.6773 257.524 24.552C256.905 25.4267 256.596 26.632 256.596 28.168V30.024ZM284.009 37.16C283.028 37.16 282.239 36.936 281.641 36.488C281.065 36.04 280.66 35.4853 280.425 34.824C279.38 35.7413 278.431 36.392 277.577 36.776C276.724 37.1387 275.871 37.32 275.017 37.32C273.631 37.32 272.607 36.872 271.945 35.976C271.284 35.08 270.953 33.9813 270.953 32.68C270.953 31.8053 271.113 31.0267 271.433 30.344C271.753 29.6613 272.297 29.128 273.065 28.744C273.833 28.3387 274.868 28.136 276.169 28.136C276.745 28.136 277.375 28.1787 278.057 28.264C278.74 28.328 279.433 28.4133 280.137 28.52V26.376C280.137 25.1813 279.871 24.3707 279.337 23.944C278.825 23.496 278.068 23.272 277.065 23.272C275.7 23.272 274.175 23.6453 272.489 24.392L271.657 22.216C272.639 21.768 273.577 21.4267 274.473 21.192C275.369 20.9573 276.276 20.84 277.193 20.84C278.687 20.84 279.828 21.0853 280.617 21.576C281.407 22.0667 281.951 22.7173 282.249 23.528C282.548 24.3387 282.697 25.224 282.697 26.184V33.032C282.697 33.5227 282.793 33.9387 282.985 34.28C283.177 34.6 283.561 34.76 284.137 34.76H284.489V37.16H284.009ZM273.545 32.648C273.545 33.3733 273.716 33.96 274.057 34.408C274.399 34.856 274.889 35.08 275.529 35.08C276.084 35.08 276.724 34.92 277.449 34.6C278.175 34.2587 279.071 33.5867 280.137 32.584V30.568C278.687 30.3333 277.407 30.216 276.297 30.216C275.316 30.216 274.612 30.4187 274.185 30.824C273.759 31.2293 273.545 31.8373 273.545 32.648ZM293.24 38.6C292.557 40.52 291.714 41.9173 290.712 42.792C289.73 43.688 288.354 44.136 286.584 44.136V41.544C287.309 41.5227 287.928 41.4267 288.44 41.256C288.973 41.0853 289.442 40.7333 289.848 40.2C290.274 39.688 290.68 38.92 291.064 37.896L291.384 37.096L285.688 21.16H288.376L291.032 28.872L292.664 33.8L294.232 28.872L296.824 21.16H299.416L293.24 38.6Z" fill="white"/>
</svg>
