<svg width="1155" height="255" viewBox="0 0 1155 255" fill="none" xmlns="http://www.w3.org/2000/svg">
<path fill-rule="evenodd" clip-rule="evenodd" d="M938.616 8.07579C900.999 25.9092 866.998 51.4406 811.024 103.885L803.34 111.085L783.976 91.8005L764.611 72.5178V95.9935V119.469L784.127 138.821L803.642 158.174L812.196 148.008C848.044 105.394 903.237 49.9912 940.169 19.5503C965.098 -0.996048 964.155 -0.0427345 959.46 0.0246307C957.27 0.0552513 947.892 3.67868 938.616 8.07579Z" fill="#BD1C2C"/>
<path fill-rule="evenodd" clip-rule="evenodd" d="M23.6251 38.1371C2.66434 49.185 -5.25617 71.5788 4.85677 91.2004C10.048 101.275 16.4844 106.433 39.9255 119.304C49.4689 124.544 59.7186 131.162 62.701 134.008C76.272 146.952 69.0395 170.434 49.8935 175.591C40.2521 178.185 26.9219 175.405 20.6161 169.479L15.9843 165.129L8.56186 169.507C4.47912 171.916 1.13944 174.766 1.13944 175.842C1.13944 179.667 14.3144 189.748 23.3271 192.818C41.3891 198.972 59.0511 195.825 72.8793 183.987C88.0957 170.963 92.9705 150.837 85.0683 133.677C79.3647 121.294 73.5917 116.303 48.3767 101.944C25.2521 88.7773 19.5118 83.1105 19.5118 73.4568C19.5118 66.7081 24.8316 58.1486 30.6821 55.4826C38.227 52.0449 54.4865 52.4389 59.8411 56.1909C63.9769 59.0876 64.9914 58.9652 72.5282 54.6599C77.0335 52.0857 80.4242 49.0625 80.0629 47.9397C79.7016 46.817 75.1656 43.2711 69.9805 40.058C63.093 35.7895 57.0954 33.9523 47.6888 33.2276C36.3633 32.3539 33.4809 32.9418 23.6251 38.1371ZM625.119 36.0324C624.37 36.7796 623.757 73.0649 623.757 116.667V195.939H671.729H719.702V183.691V171.443H684.998H650.295V153.07V134.698H680.916H711.536V123.47V112.243H680.916H650.295V85.7051V59.1673H683.978H717.66V46.919V34.6708H672.07C646.994 34.6708 625.866 35.2832 625.119 36.0324ZM741.646 35.8283C740.803 36.6877 740.115 73.0649 740.115 116.667V195.939H775.762C806.891 195.939 812.851 195.4 822.781 191.685C852.162 180.692 871.424 154.683 874.225 122.225C875.354 109.154 872.214 88.8835 868.728 86.7298C867.291 85.8418 835.892 119.882 812.196 148.018L803.643 158.174L784.127 138.822L764.612 119.469V95.9936V72.5178L783.89 91.7149L803.167 110.912L820.966 94.7361C830.756 85.8398 842.521 75.1165 847.11 70.9092L855.453 63.2582L845.695 54.1924C829.666 39.2966 818.635 36.1998 777.881 35.1546C758.794 34.6647 742.489 34.9668 741.646 35.8283ZM954.01 36.7734C907.44 44.6205 877.177 93.152 890.828 138.095C898.746 164.159 915.808 182.141 941.997 192.016C958.583 198.27 983.391 196.898 1000.35 188.79C1026.13 176.456 1043.54 150.663 1045.75 121.519L1046.91 106.119H1005.79H964.666V117.289V128.46L992.184 129.027L1019.7 129.595L1014.95 139.844C1005.31 160.644 989.026 171.322 966.842 171.398C950.374 171.455 939.13 166.339 928.054 153.758C900.357 122.291 915.101 71.8074 955.137 61.027C972.127 56.4502 990.579 62.3804 1004.8 76.9823C1013.1 85.5091 1013.6 85.7051 1026.75 85.7051C1034.14 85.7051 1040.2 85.2009 1040.2 84.5864C1040.2 83.972 1037.14 78.6889 1033.4 72.8485C1020.71 53.0166 1001.79 40.5602 978.674 36.8081C971.531 35.6507 965.227 34.8035 964.666 34.926C964.105 35.0505 959.309 35.8814 954.01 36.7734ZM1059.93 36.0324C1059.18 36.7796 1058.57 73.0649 1058.57 116.667V195.939H1106.54H1154.51V183.691V171.443H1118.79H1083.07V153.07V134.698H1114.71H1146.35V123.47V112.243H1114.65H1082.94L1083.51 86.2154L1084.09 60.1879L1118.28 59.6286L1152.47 59.0693V46.87V34.6708H1106.88C1081.81 34.6708 1060.68 35.2832 1059.93 36.0324ZM105.262 137.25C105.274 165.594 107.156 174.666 114.94 183.917C121.123 191.266 134.137 197.868 142.57 197.935C156.631 198.046 175.134 184.544 178.747 171.532C179.853 167.554 180.762 152.584 180.768 138.27L180.78 112.243H171.594H162.408V137.862C162.408 166.041 160.436 172.978 151.237 177.169C144.254 180.351 140.981 180.245 133.949 176.607C125.741 172.363 123.622 164.122 123.622 136.435V112.243H114.435H105.249L105.262 137.25ZM201.194 154.207V196.174L209.869 195.545L218.545 194.918L219.113 166.954C219.668 139.55 219.786 138.903 225.002 134.802C231.653 129.568 242.131 129.417 248.364 134.463C253.059 138.266 253.196 138.25 259.903 133.134L266.691 127.957L261.163 122.188C251.95 112.572 234.803 109.701 220.762 115.425C218.01 116.548 217.292 116.313 218.331 114.631C219.376 112.941 217.086 112.243 210.5 112.243H201.194V154.207ZM276.185 113.666C274.95 115.883 309.496 193.898 311.715 193.898C312.679 193.898 313.469 193.016 313.469 191.94C313.469 190.862 320.818 173.257 329.8 152.817C338.782 132.377 346.131 114.886 346.131 113.947C346.131 113.01 342.15 112.243 337.288 112.243H328.442L320.748 130.105C316.515 139.93 312.393 148.675 311.585 149.541C310.778 150.406 306.418 142.598 301.899 132.189L293.678 113.264L285.388 112.645C280.83 112.304 276.688 112.763 276.185 113.666ZM377.239 117.659C362.111 125.116 352.673 143.302 355.199 160.135C358.755 183.846 380.532 197.856 406.313 193.02C413.755 191.624 431.868 176.579 431.868 171.792C431.868 167.764 414.341 168.946 406.911 173.476C398.927 178.344 392.895 178.63 384.939 174.517C379.315 171.608 372.669 164.167 372.669 160.781C372.669 159.909 386.907 159.194 404.31 159.194H435.951L435.906 152.56C435.812 138.764 423.689 121.321 410.812 116.456C402.373 113.268 384.878 113.894 377.239 117.659ZM446.115 128.063C449.359 135.643 457.02 153.232 463.138 167.15L474.259 192.458L459.151 223.287L444.041 254.118L454.511 254.743C460.27 255.086 465.196 255.086 465.455 254.743C466.653 253.163 531.896 116.277 531.896 115.342C531.896 114.76 527.247 114.284 521.568 114.284H511.239L498.772 140.822C491.915 155.418 485.769 167.344 485.113 167.321C484.458 167.301 478.871 155.365 472.696 140.798L461.468 114.311L450.843 114.299L440.216 114.284L446.115 128.063ZM546.226 122.368C543.958 126.814 542.102 131.407 542.102 132.575C542.102 133.953 553.201 134.698 573.744 134.698H605.385V124.491V114.284H577.867H550.352L546.226 122.368ZM383.608 134.424C371.742 141.873 373.132 142.863 395.467 142.863H416.466L411.21 137.607C404.061 130.458 392.121 129.082 383.608 134.424Z" fill="#434344"/>
<path fill-rule="evenodd" clip-rule="evenodd" d="M23.6251 38.1371C2.66434 49.185 -5.25617 71.5788 4.85677 91.2004C10.048 101.275 16.4844 106.433 39.9255 119.304C49.4689 124.544 59.7186 131.162 62.701 134.008C76.272 146.952 69.0395 170.434 49.8935 175.591C40.2521 178.185 26.9219 175.405 20.6161 169.479L15.9843 165.129L8.56186 169.507C4.47912 171.916 1.13944 174.766 1.13944 175.842C1.13944 179.667 14.3144 189.748 23.3271 192.818C41.3891 198.972 59.0511 195.825 72.8793 183.987C88.0957 170.963 92.9705 150.837 85.0683 133.677C79.3647 121.294 73.5917 116.303 48.3767 101.944C25.2521 88.7773 19.5118 83.1105 19.5118 73.4568C19.5118 66.7081 24.8316 58.1486 30.6821 55.4826C38.227 52.0449 54.4865 52.4389 59.8411 56.1909C63.9769 59.0876 64.9914 58.9652 72.5282 54.6599C77.0335 52.0857 80.4242 49.0625 80.0629 47.9397C79.7016 46.817 75.1656 43.2711 69.9805 40.058C63.093 35.7895 57.0954 33.9523 47.6888 33.2276C36.3633 32.3539 33.4809 32.9418 23.6251 38.1371ZM625.119 36.0324C624.37 36.7796 623.757 73.0649 623.757 116.667V195.939H671.729H719.702V183.691V171.443H684.998H650.295V153.07V134.698H680.916H711.536V123.47V112.243H680.916H650.295V85.7051V59.1673H683.978H717.66V46.919V34.6708H672.07C646.994 34.6708 625.866 35.2832 625.119 36.0324ZM741.646 35.8283C740.803 36.6877 740.115 73.0649 740.115 116.667V195.939H775.762C806.891 195.939 812.851 195.4 822.781 191.685C852.162 180.692 871.424 154.683 874.225 122.225C875.354 109.154 872.214 88.8835 868.728 86.7298C867.291 85.8418 835.892 119.882 812.196 148.018L803.643 158.174L784.127 138.822L764.612 119.469V95.9936V72.5178L783.89 91.7149L803.167 110.912L820.966 94.7361C830.756 85.8398 842.521 75.1165 847.11 70.9092L855.453 63.2582L845.695 54.1924C829.666 39.2966 818.635 36.1998 777.881 35.1546C758.794 34.6647 742.489 34.9668 741.646 35.8283ZM954.01 36.7734C907.44 44.6205 877.177 93.152 890.828 138.095C898.746 164.159 915.808 182.141 941.997 192.016C958.583 198.27 983.391 196.898 1000.35 188.79C1026.13 176.456 1043.54 150.663 1045.75 121.519L1046.91 106.119H1005.79H964.666V117.289V128.46L992.184 129.027L1019.7 129.595L1014.95 139.844C1005.31 160.644 989.026 171.322 966.842 171.398C950.374 171.455 939.13 166.339 928.054 153.758C900.357 122.291 915.101 71.8074 955.137 61.027C972.127 56.4502 990.579 62.3804 1004.8 76.9823C1013.1 85.5091 1013.6 85.7051 1026.75 85.7051C1034.14 85.7051 1040.2 85.2009 1040.2 84.5864C1040.2 83.972 1037.14 78.6889 1033.4 72.8485C1020.71 53.0166 1001.79 40.5602 978.674 36.8081C971.531 35.6507 965.227 34.8035 964.666 34.926C964.105 35.0505 959.309 35.8814 954.01 36.7734ZM1059.93 36.0324C1059.18 36.7796 1058.57 73.0649 1058.57 116.667V195.939H1106.54H1154.51V183.691V171.443H1118.79H1083.07V153.07V134.698H1114.71H1146.35V123.47V112.243H1114.65H1082.94L1083.51 86.2154L1084.09 60.1879L1118.28 59.6286L1152.47 59.0693V46.87V34.6708H1106.88C1081.81 34.6708 1060.68 35.2832 1059.93 36.0324ZM105.262 137.25C105.274 165.594 107.156 174.666 114.94 183.917C121.123 191.266 134.137 197.868 142.57 197.935C156.631 198.046 175.134 184.544 178.747 171.532C179.853 167.554 180.762 152.584 180.768 138.27L180.78 112.243H171.594H162.408V137.862C162.408 166.041 160.436 172.978 151.237 177.169C144.254 180.351 140.981 180.245 133.949 176.607C125.741 172.363 123.622 164.122 123.622 136.435V112.243H114.435H105.249L105.262 137.25ZM201.194 154.207V196.174L209.869 195.545L218.545 194.918L219.113 166.954C219.668 139.55 219.786 138.903 225.002 134.802C231.653 129.568 242.131 129.417 248.364 134.463C253.059 138.266 253.196 138.25 259.903 133.134L266.691 127.957L261.163 122.188C251.95 112.572 234.803 109.701 220.762 115.425C218.01 116.548 217.292 116.313 218.331 114.631C219.376 112.941 217.086 112.243 210.5 112.243H201.194V154.207ZM276.185 113.666C274.95 115.883 309.496 193.898 311.715 193.898C312.679 193.898 313.469 193.016 313.469 191.94C313.469 190.862 320.818 173.257 329.8 152.817C338.782 132.377 346.131 114.886 346.131 113.947C346.131 113.01 342.15 112.243 337.288 112.243H328.442L320.748 130.105C316.515 139.93 312.393 148.675 311.585 149.541C310.778 150.406 306.418 142.598 301.899 132.189L293.678 113.264L285.388 112.645C280.83 112.304 276.688 112.763 276.185 113.666ZM377.239 117.659C362.111 125.116 352.673 143.302 355.199 160.135C358.755 183.846 380.532 197.856 406.313 193.02C413.755 191.624 431.868 176.579 431.868 171.792C431.868 167.764 414.341 168.946 406.911 173.476C398.927 178.344 392.895 178.63 384.939 174.517C379.315 171.608 372.669 164.167 372.669 160.781C372.669 159.909 386.907 159.194 404.31 159.194H435.951L435.906 152.56C435.812 138.764 423.689 121.321 410.812 116.456C402.373 113.268 384.878 113.894 377.239 117.659ZM446.115 128.063C449.359 135.643 457.02 153.232 463.138 167.15L474.259 192.458L459.151 223.287L444.041 254.118L454.511 254.743C460.27 255.086 465.196 255.086 465.455 254.743C466.653 253.163 531.896 116.277 531.896 115.342C531.896 114.76 527.247 114.284 521.568 114.284H511.239L498.772 140.822C491.915 155.418 485.769 167.344 485.113 167.321C484.458 167.301 478.871 155.365 472.696 140.798L461.468 114.311L450.843 114.299L440.216 114.284L446.115 128.063ZM546.226 122.368C543.958 126.814 542.102 131.407 542.102 132.575C542.102 133.953 553.201 134.698 573.744 134.698H605.385V124.491V114.284H577.867H550.352L546.226 122.368ZM383.608 134.424C371.742 141.873 373.132 142.863 395.467 142.863H416.466L411.21 137.607C404.061 130.458 392.121 129.082 383.608 134.424Z" fill="#434344"/>
</svg>
