<svg width="175" height="51" viewBox="0 0 175 51" fill="none" xmlns="http://www.w3.org/2000/svg">
<rect x="1.5" y="1.5" width="172" height="48" rx="22.7324" fill="#B02F36" stroke="#414141" stroke-width="3"/>
<path d="M60.1511 35.4184V38H48.295V16.3276H51.0678V35.4184H60.1511ZM76.026 29.1398V31.0521C76.026 33.3043 75.4417 35.0785 74.2731 36.3746C73.1257 37.6707 71.479 38.3187 69.333 38.3187C67.2083 38.3187 65.5616 37.6707 64.393 36.3746C63.2244 35.0785 62.6401 33.3043 62.6401 31.0521V29.1398C62.6401 26.9301 63.2137 25.1771 64.3611 23.881C65.5297 22.5637 67.187 21.905 69.333 21.905C71.479 21.905 73.1257 22.5637 74.2731 23.881C75.4417 25.1771 76.026 26.9301 76.026 29.1398ZM73.3169 29.1398C73.3169 27.6312 72.977 26.452 72.297 25.6021C71.6171 24.7309 70.6291 24.2954 69.333 24.2954C68.0582 24.2954 67.0702 24.7309 66.369 25.6021C65.6891 26.452 65.3491 27.6312 65.3491 29.1398V31.0521C65.3491 32.6244 65.6891 33.8355 66.369 34.6854C67.0702 35.5353 68.0582 35.9602 69.333 35.9602C70.6291 35.9602 71.6171 35.5353 72.297 34.6854C72.977 33.8355 73.3169 32.6244 73.3169 31.0521V29.1398ZM93.3963 39.976C93.3963 41.5271 92.7589 42.7701 91.484 43.705C90.2304 44.6398 88.4988 45.1073 86.289 45.1073C85.1841 45.1073 84.0262 44.9586 82.815 44.6611C81.6252 44.3636 80.4991 43.8856 79.4367 43.2269L80.3291 41.1871C81.3915 41.7821 82.4113 42.1964 83.3887 42.4301C84.3874 42.6851 85.3541 42.8126 86.289 42.8126C87.7338 42.8126 88.8493 42.5788 89.6355 42.1114C90.4216 41.6439 90.8147 41.0171 90.8147 40.231C90.8147 39.6573 90.6235 39.2111 90.241 38.8924C89.8586 38.5949 89.2424 38.4462 88.3925 38.4462H84.7273C83.3462 38.4462 82.3476 38.1169 81.7314 37.4582C81.1152 36.7995 80.8072 36.0771 80.8072 35.2909C80.8072 34.7385 80.9346 34.1967 81.1896 33.6655C81.4446 33.1131 81.8058 32.5713 82.2732 32.0401C81.5296 31.5939 80.9346 30.9883 80.4884 30.2234C80.0422 29.4373 79.8192 28.4917 79.8192 27.3869C79.8192 26.1758 80.0741 25.1665 80.5841 24.3591C81.1152 23.5517 81.8164 22.9462 82.6876 22.5425C83.5587 22.1175 84.5361 21.905 85.6197 21.905H86.1615C86.9052 21.905 87.5851 22.0113 88.2013 22.2237H93.8744V24.5503L90.4323 24.0723C90.8785 24.4547 91.2397 24.9328 91.5159 25.5065C91.7921 26.0589 91.9302 26.7388 91.9302 27.5462C91.9302 28.6936 91.6646 29.6604 91.1334 30.4465C90.6235 31.2327 89.933 31.8382 89.0618 32.2632C88.1907 32.6669 87.2239 32.8687 86.1615 32.8687H85.6197C85.3435 32.8687 85.0779 32.8581 84.8229 32.8369C84.568 32.7944 84.313 32.7519 84.058 32.7094C83.4418 33.3893 83.1338 34.0586 83.1338 34.7173C83.1338 35.5672 83.7287 35.9921 84.9185 35.9921H88.4881C90.0179 35.9921 91.2184 36.3321 92.0896 37.012C92.9607 37.6919 93.3963 38.6799 93.3963 39.976ZM86.1615 30.6059C86.9902 30.6059 87.7232 30.3403 88.3606 29.8091C88.9981 29.2779 89.3168 28.4705 89.3168 27.3869C89.3168 26.3245 88.9981 25.5277 88.3606 24.9965C87.7232 24.4441 86.9902 24.1679 86.1615 24.1679H85.6197C84.7698 24.1679 84.0262 24.4441 83.3887 24.9965C82.7513 25.5277 82.4326 26.3245 82.4326 27.3869C82.4326 28.4705 82.7513 29.2779 83.3887 29.8091C84.0262 30.3403 84.7698 30.6059 85.6197 30.6059H86.1615ZM107.621 38H104.848V16.3276H107.621V38ZM121.415 24.3591C120.82 24.3591 120.118 24.5078 119.311 24.8053C118.525 25.1028 117.569 25.7083 116.443 26.622V38H113.829V22.2237H116.315V24.4229C117.441 23.4667 118.461 22.808 119.375 22.4468C120.31 22.0856 121.202 21.905 122.052 21.905C123.518 21.905 124.634 22.3725 125.399 23.3074C126.185 24.221 126.578 25.5277 126.578 27.2275V38H123.964V27.61C123.964 25.4427 123.114 24.3591 121.415 24.3591Z" fill="white"/>
</svg>
