<svg width="276" height="77" viewBox="0 0 276 77" fill="none" xmlns="http://www.w3.org/2000/svg">
<rect width="276" height="76.5671" fill="white"/>
<path fill-rule="evenodd" clip-rule="evenodd" d="M218.107 11.7915C209.763 15.7475 202.22 21.4112 189.803 33.0451L188.099 34.6423L183.803 30.3643L179.507 26.0868V31.2944V36.5021L183.836 40.795L188.166 45.088L190.063 42.8328C198.015 33.3798 210.259 21.0897 218.452 14.3369C223.982 9.77904 223.773 9.99052 222.731 10.0055C222.245 10.0123 220.165 10.816 218.107 11.7915Z" fill="#BD1C2C"/>
<path fill-rule="evenodd" clip-rule="evenodd" d="M15.1329 18.46C10.4832 20.9107 8.72613 25.8784 10.9695 30.2311C12.1211 32.4659 13.5489 33.6102 18.7489 36.4654C20.8659 37.6278 23.1396 39.0959 23.8012 39.7272C26.8117 42.5986 25.2073 47.8077 20.9601 48.9515C18.8213 49.5271 15.8643 48.9103 14.4654 47.5957L13.4379 46.6307L11.7914 47.6021C10.8857 48.1364 10.1449 48.7686 10.1449 49.0072C10.1449 49.8559 13.0675 52.092 15.0668 52.7731C19.0735 54.1384 22.9915 53.4401 26.0591 50.8141C29.4345 47.925 30.5159 43.4604 28.763 39.6538C27.4977 36.9069 26.2171 35.7997 20.6236 32.6144C15.4938 29.6936 14.2204 28.4365 14.2204 26.295C14.2204 24.7979 15.4006 22.8992 16.6984 22.3077C18.3721 21.5452 21.979 21.6326 23.1668 22.4649C24.0842 23.1075 24.3093 23.0803 25.9812 22.1253C26.9806 21.5542 27.7328 20.8836 27.6526 20.6345C27.5725 20.3854 26.5663 19.5989 25.416 18.8861C23.8882 17.9392 22.5577 17.5316 20.471 17.3709C17.9587 17.1771 17.3192 17.3075 15.1329 18.46ZM148.563 17.9931C148.397 18.1588 148.261 26.2081 148.261 35.8803V53.4655H158.903H169.545V50.7484V48.0314H161.847H154.148V43.9558V39.8802H160.941H167.734V37.3896V34.899H160.941H154.148V29.0121V23.1251H161.62H169.092V20.4081V17.691H158.979C153.416 17.691 148.729 17.8269 148.563 17.9931ZM174.413 17.9478C174.226 18.1384 174.073 26.2081 174.073 35.8803V53.4655H181.981C188.886 53.4655 190.208 53.3459 192.411 52.5217C198.929 50.0832 203.202 44.3136 203.823 37.1134C204.074 34.2138 203.377 29.7171 202.604 29.2394C202.285 29.0424 195.32 36.5935 190.063 42.835L188.166 45.0879L183.837 40.795L179.507 36.502V31.2944V26.0867L183.784 30.3452L188.06 34.6037L192.009 31.0154C194.18 29.0419 196.79 26.6632 197.808 25.7299L199.659 24.0326L197.494 22.0216C193.939 18.7172 191.491 18.0302 182.451 17.7984C178.217 17.6897 174.6 17.7567 174.413 17.9478ZM221.522 18.1575C211.191 19.8982 204.478 30.664 207.506 40.6338C209.263 46.4156 213.048 50.4047 218.857 52.5951C222.536 53.9826 228.04 53.6783 231.801 51.8796C237.521 49.1436 241.383 43.4219 241.872 36.9567L242.13 33.5405H233.008H223.886V36.0184V38.4964L229.99 38.6222L236.094 38.7481L235.04 41.0218C232.901 45.6358 229.29 48.0047 224.369 48.0214C220.715 48.0341 218.221 46.8993 215.764 44.1084C209.62 37.1279 212.891 25.9291 221.772 23.5377C225.541 22.5224 229.634 23.8379 232.789 27.0771C234.631 28.9686 234.74 29.0121 237.657 29.0121C239.298 29.0121 240.641 28.9002 240.641 28.7639C240.641 28.6276 239.963 27.4556 239.133 26.1601C236.317 21.7607 232.121 18.9975 226.993 18.1652C225.409 17.9084 224.01 17.7205 223.886 17.7476C223.761 17.7753 222.698 17.9596 221.522 18.1575ZM245.019 17.9931C244.852 18.1588 244.716 26.2081 244.716 35.8803V53.4655H255.358H266V50.7484V48.0314H258.075H250.151V43.9558V39.8802H257.17H264.189V37.3896V34.899H257.156H250.123L250.25 29.1253L250.377 23.3515L257.962 23.2275L265.547 23.1034V20.3972V17.691H255.434C249.871 17.691 245.184 17.8269 245.019 17.9931ZM33.2425 40.4463C33.2452 46.734 33.6627 48.7464 35.3894 50.7987C36.7611 52.4289 39.6479 53.8934 41.5186 53.9083C44.6378 53.9328 48.7423 50.9377 49.5439 48.0513C49.7893 47.1687 49.9908 43.848 49.9922 40.6727L49.9949 34.899H47.9571H45.9193V40.5821C45.9193 46.8332 45.4819 48.3719 43.4414 49.3016C41.8922 50.0076 41.1663 49.984 39.6063 49.1771C37.7854 48.2356 37.3153 46.4075 37.3153 40.2656V34.899H35.2776H33.2398L33.2425 40.4463ZM54.5233 44.208V53.5175L56.4479 53.3781L58.3724 53.239L58.4983 47.0356C58.6215 40.9566 58.6478 40.8131 59.8048 39.9033C61.2801 38.7422 63.6046 38.7087 64.9871 39.8282C66.0286 40.6718 66.059 40.6682 67.547 39.5334L69.0527 38.385L67.8264 37.1052C65.7827 34.9719 61.9789 34.3352 58.8642 35.605C58.2538 35.854 58.0944 35.802 58.3249 35.4288C58.5567 35.0539 58.0487 34.899 56.5878 34.899H54.5233V44.208ZM71.1588 35.2146C70.8849 35.7064 78.5483 53.0126 79.0406 53.0126C79.2543 53.0126 79.4295 52.817 79.4295 52.5784C79.4295 52.3393 81.0598 48.434 83.0523 43.8997C85.0448 39.3654 86.675 35.4854 86.675 35.2771C86.675 35.0693 85.792 34.899 84.7133 34.899H82.7511L81.0444 38.8613C80.1052 41.0409 79.1909 42.9808 79.0116 43.1728C78.8327 43.3648 77.8654 41.6327 76.8628 39.3237L75.0392 35.1254L73.2003 34.9882C72.1891 34.9126 71.2702 35.0145 71.1588 35.2146ZM93.5758 36.1004C90.2198 37.7546 88.1263 41.789 88.6865 45.5231C89.4754 50.7828 94.3063 53.8907 100.025 52.8179C101.676 52.5082 105.694 49.1707 105.694 48.1088C105.694 47.2154 101.806 47.4776 100.158 48.4824C98.3868 49.5624 97.0487 49.6258 95.284 48.7134C94.0364 48.0681 92.5619 46.4174 92.5619 45.6662C92.5619 45.4728 95.7205 45.3143 99.581 45.3143H106.6L106.59 43.8426C106.569 40.7823 103.88 36.9128 101.023 35.8337C99.1512 35.1263 95.2704 35.2653 93.5758 36.1004ZM108.855 38.4085C109.574 40.0899 111.274 43.9916 112.631 47.0791L115.098 52.6934L111.747 59.5322L108.395 66.3714L110.717 66.51C111.995 66.5861 113.087 66.5861 113.145 66.51C113.411 66.1595 127.884 35.7938 127.884 35.5864C127.884 35.4573 126.852 35.3518 125.593 35.3518H123.301L120.536 41.2388C119.015 44.4766 117.651 47.1221 117.506 47.1171C117.36 47.1126 116.121 44.4648 114.751 41.2333L112.261 35.3577L109.903 35.355L107.546 35.3518L108.855 38.4085ZM131.062 37.1451C130.559 38.1314 130.148 39.1503 130.148 39.4093C130.148 39.715 132.61 39.8802 137.167 39.8802H144.186V37.616V35.3518H138.081H131.978L131.062 37.1451ZM94.9887 39.8196C92.3563 41.472 92.6647 41.6916 97.6193 41.6916H102.278L101.112 40.5255C99.5257 38.9397 96.877 38.6345 94.9887 39.8196Z" fill="#434344"/>
</svg>
