<svg width="356" height="51" viewBox="0 0 356 51" fill="none" xmlns="http://www.w3.org/2000/svg">
<rect x="1.5" y="1.5" width="353" height="48" rx="22.5" fill="#414141" stroke="#414141" stroke-width="3"/>
<path d="M61.8295 37V15.24H64.7415C66.6828 18.0133 68.4642 20.808 70.0855 23.624C71.7282 26.4187 73.2642 29.3413 74.6935 32.392L74.3735 24.072V15.24H77.0935V37H74.1815C72.6882 33.8853 71.1415 30.856 69.5415 27.912C67.9628 24.9467 66.2348 22.056 64.3575 19.24L64.5495 28.104V37H61.8295ZM94.6113 27.848H86.7073V37H83.9233V15.24H95.5713V17.864H86.7073V25.224H94.6113V27.848ZM112.015 34.408V37H100.111V15.24H102.895V34.408H112.015ZM123.267 37V15.24H130.051C132.142 15.24 133.731 15.7947 134.819 16.904C135.928 17.992 136.483 19.4533 136.483 21.288V22.984C136.483 24.8187 135.928 26.2907 134.819 27.4C133.731 28.5093 132.142 29.064 130.051 29.064H126.051V37H123.267ZM130.051 17.864H126.051V26.472H130.051C131.203 26.472 132.078 26.1627 132.675 25.544C133.294 24.9253 133.603 24.072 133.603 22.984V21.288C133.603 20.2213 133.294 19.3893 132.675 18.792C132.078 18.1733 131.203 17.864 130.051 17.864ZM148.667 23.464C147.707 23.464 146.769 23.6347 145.851 23.976C144.955 24.3173 143.995 24.968 142.971 25.928V37H140.347V21.16H142.843V23.72C143.931 22.6533 144.923 21.9067 145.819 21.48C146.737 21.0533 147.686 20.84 148.667 20.84V23.464ZM163.585 36.072C162.625 36.5413 161.665 36.8613 160.705 37.032C159.745 37.224 158.86 37.32 158.049 37.32C155.767 37.32 154.06 36.6693 152.929 35.368C151.82 34.0667 151.265 32.2853 151.265 30.024V28.104C151.265 25.9067 151.82 24.1467 152.929 22.824C154.06 21.5013 155.649 20.84 157.697 20.84C158.785 20.84 159.777 21.064 160.673 21.512C161.591 21.9387 162.316 22.6 162.849 23.496C163.404 24.3707 163.681 25.5013 163.681 26.888C163.681 27.784 163.553 28.808 163.297 29.96H153.857V30.024C153.857 31.6453 154.188 32.872 154.849 33.704C155.532 34.536 156.62 34.952 158.113 34.952C158.796 34.952 159.543 34.8667 160.353 34.696C161.185 34.5253 161.996 34.2587 162.785 33.896L163.585 36.072ZM157.697 23.144C156.46 23.144 155.521 23.5493 154.881 24.36C154.263 25.1493 153.921 26.2693 153.857 27.72H161.025C161.089 27.336 161.121 26.9733 161.121 26.632C161.121 25.4373 160.78 24.5627 160.097 24.008C159.436 23.432 158.636 23.144 157.697 23.144ZM172.094 34.984C174.228 34.984 175.294 34.2587 175.294 32.808C175.294 32.1893 175.102 31.6987 174.718 31.336C174.334 30.9733 173.63 30.664 172.606 30.408L170.846 29.96C169.545 29.64 168.574 29.0853 167.934 28.296C167.294 27.4853 166.974 26.5253 166.974 25.416C166.974 24.6053 167.156 23.8587 167.518 23.176C167.881 22.472 168.457 21.9067 169.246 21.48C170.036 21.0533 171.06 20.84 172.318 20.84C173.129 20.84 173.95 20.936 174.782 21.128C175.636 21.2987 176.5 21.5973 177.374 22.024L176.542 24.232C174.985 23.528 173.577 23.176 172.318 23.176C170.462 23.176 169.534 23.8693 169.534 25.256C169.534 25.7893 169.705 26.248 170.046 26.632C170.388 27.016 171.028 27.3253 171.966 27.56L173.726 28.008C175.134 28.3493 176.169 28.904 176.83 29.672C177.492 30.44 177.822 31.432 177.822 32.648C177.822 33.5227 177.63 34.3227 177.246 35.048C176.884 35.752 176.286 36.3067 175.454 36.712C174.644 37.1173 173.545 37.32 172.158 37.32C171.241 37.32 170.324 37.224 169.406 37.032C168.51 36.84 167.582 36.5307 166.622 36.104L167.326 33.928C168.244 34.2907 169.076 34.5573 169.822 34.728C170.569 34.8987 171.326 34.984 172.094 34.984ZM193.492 36.072C192.532 36.5413 191.572 36.8613 190.612 37.032C189.652 37.224 188.766 37.32 187.956 37.32C185.673 37.32 183.966 36.6693 182.836 35.368C181.726 34.0667 181.172 32.2853 181.172 30.024V28.104C181.172 25.9067 181.726 24.1467 182.836 22.824C183.966 21.5013 185.556 20.84 187.604 20.84C188.692 20.84 189.684 21.064 190.58 21.512C191.497 21.9387 192.222 22.6 192.756 23.496C193.31 24.3707 193.588 25.5013 193.588 26.888C193.588 27.784 193.46 28.808 193.204 29.96H183.764V30.024C183.764 31.6453 184.094 32.872 184.756 33.704C185.438 34.536 186.526 34.952 188.02 34.952C188.702 34.952 189.449 34.8667 190.26 34.696C191.092 34.5253 191.902 34.2587 192.692 33.896L193.492 36.072ZM187.604 23.144C186.366 23.144 185.428 23.5493 184.788 24.36C184.169 25.1493 183.828 26.2693 183.764 27.72H190.932C190.996 27.336 191.028 26.9733 191.028 26.632C191.028 25.4373 190.686 24.5627 190.004 24.008C189.342 23.432 188.542 23.144 187.604 23.144ZM205.745 23.304C205.147 23.304 204.443 23.4533 203.633 23.752C202.843 24.0507 201.883 24.6587 200.753 25.576V37H198.129V21.16H200.625V23.368C201.755 22.408 202.779 21.7467 203.697 21.384C204.635 21.0213 205.531 20.84 206.385 20.84C207.857 20.84 208.977 21.3093 209.745 22.248C210.534 23.1653 210.929 24.4773 210.929 26.184V37H208.305V26.568C208.305 24.392 207.451 23.304 205.745 23.304ZM225.114 36.424C223.919 37.0213 222.65 37.32 221.306 37.32C220.154 37.32 219.247 37.0853 218.586 36.616C217.946 36.1467 217.487 35.5173 217.21 34.728C216.954 33.9387 216.826 33.064 216.826 32.104V23.464H214.074V21.16H216.826V16.744H219.45V21.16H224.634V23.464H219.45V32.008C219.45 33.1173 219.631 33.8853 219.994 34.312C220.378 34.7173 220.964 34.92 221.754 34.92C222.138 34.92 222.532 34.8773 222.938 34.792C223.364 34.6853 223.823 34.5147 224.314 34.28L225.114 36.424ZM240.15 37.16C239.169 37.16 238.379 36.936 237.782 36.488C237.206 36.04 236.801 35.4853 236.566 34.824C235.521 35.7413 234.571 36.392 233.718 36.776C232.865 37.1387 232.011 37.32 231.158 37.32C229.771 37.32 228.747 36.872 228.086 35.976C227.425 35.08 227.094 33.9813 227.094 32.68C227.094 31.8053 227.254 31.0267 227.574 30.344C227.894 29.6613 228.438 29.128 229.206 28.744C229.974 28.3387 231.009 28.136 232.31 28.136C232.886 28.136 233.515 28.1787 234.198 28.264C234.881 28.328 235.574 28.4133 236.278 28.52V26.376C236.278 25.1813 236.011 24.3707 235.478 23.944C234.966 23.496 234.209 23.272 233.206 23.272C231.841 23.272 230.315 23.6453 228.63 24.392L227.798 22.216C228.779 21.768 229.718 21.4267 230.614 21.192C231.51 20.9573 232.417 20.84 233.334 20.84C234.827 20.84 235.969 21.0853 236.758 21.576C237.547 22.0667 238.091 22.7173 238.39 23.528C238.689 24.3387 238.838 25.224 238.838 26.184V33.032C238.838 33.5227 238.934 33.9387 239.126 34.28C239.318 34.6 239.702 34.76 240.278 34.76H240.63V37.16H240.15ZM229.686 32.648C229.686 33.3733 229.857 33.96 230.198 34.408C230.539 34.856 231.03 35.08 231.67 35.08C232.225 35.08 232.865 34.92 233.59 34.6C234.315 34.2587 235.211 33.5867 236.278 32.584V30.568C234.827 30.3333 233.547 30.216 232.438 30.216C231.457 30.216 230.753 30.4187 230.326 30.824C229.899 31.2293 229.686 31.8373 229.686 32.648ZM253.051 36.424C251.857 37.0213 250.587 37.32 249.243 37.32C248.091 37.32 247.185 37.0853 246.523 36.616C245.883 36.1467 245.425 35.5173 245.147 34.728C244.891 33.9387 244.763 33.064 244.763 32.104V23.464H242.011V21.16H244.763V16.744H247.387V21.16H252.571V23.464H247.387V32.008C247.387 33.1173 247.569 33.8853 247.931 34.312C248.315 34.7173 248.902 34.92 249.691 34.92C250.075 34.92 250.47 34.8773 250.875 34.792C251.302 34.6853 251.761 34.5147 252.251 34.28L253.051 36.424ZM259.288 17.288H256.344V14.344H259.288V17.288ZM259.128 37H256.504V21.16H259.128V37ZM277.329 28.104V30.024C277.329 32.2853 276.742 34.0667 275.569 35.368C274.417 36.6693 272.763 37.32 270.609 37.32C268.475 37.32 266.822 36.6693 265.649 35.368C264.475 34.0667 263.889 32.2853 263.889 30.024V28.104C263.889 25.8853 264.465 24.1253 265.617 22.824C266.79 21.5013 268.454 20.84 270.609 20.84C272.763 20.84 274.417 21.5013 275.569 22.824C276.742 24.1253 277.329 25.8853 277.329 28.104ZM274.609 28.104C274.609 26.5893 274.267 25.4053 273.585 24.552C272.902 23.6773 271.91 23.24 270.609 23.24C269.329 23.24 268.337 23.6773 267.633 24.552C266.95 25.4053 266.609 26.5893 266.609 28.104V30.024C266.609 31.6027 266.95 32.8187 267.633 33.672C268.337 34.5253 269.329 34.952 270.609 34.952C271.91 34.952 272.902 34.5253 273.585 33.672C274.267 32.8187 274.609 31.6027 274.609 30.024V28.104ZM289.713 23.304C289.116 23.304 288.412 23.4533 287.601 23.752C286.812 24.0507 285.852 24.6587 284.721 25.576V37H282.097V21.16H284.593V23.368C285.724 22.408 286.748 21.7467 287.665 21.384C288.604 21.0213 289.5 20.84 290.353 20.84C291.825 20.84 292.945 21.3093 293.713 22.248C294.503 23.1653 294.897 24.4773 294.897 26.184V37H292.273V26.568C292.273 24.392 291.42 23.304 289.713 23.304Z" fill="white"/>
</svg>
