<svg width="242" height="235" viewBox="0 0 242 235" fill="none" xmlns="http://www.w3.org/2000/svg">
<g filter="url(#filter0_d_681_434)">
<circle cx="121.295" cy="102.288" r="99.9876" fill="white"/>
<circle cx="121.295" cy="102.288" r="98.5592" stroke="#A0A0A0" stroke-width="2.85679"/>
</g>
<path d="M126.956 46.0975L95.8543 69.4619C95.6493 69.6156 95.5127 69.8205 95.3931 70.0255H77.46V96.4129H95.3931C95.5127 96.6178 95.6664 96.8228 95.8543 96.9765L126.956 120.324C128.185 121.246 129.944 120.375 129.944 118.838V47.6005C129.944 46.0633 128.185 45.1752 126.956 46.0975ZM147.826 113.902C146.323 113.902 144.855 113.133 144.035 111.733C142.822 109.649 143.522 106.968 145.606 105.755C146.016 105.516 156.144 99.1968 156.144 83.2106C156.144 66.9854 145.708 60.7344 145.606 60.6661C143.522 59.4534 142.822 56.772 144.035 54.6883C145.247 52.6047 147.929 51.9044 150.012 53.117C150.644 53.4586 164.906 62.0324 164.906 83.2106C164.906 104.389 150.644 112.963 150.03 113.304C149.329 113.714 148.578 113.902 147.826 113.902Z" fill="#B02F36"/>
<path d="M138.307 101.244C136.787 101.244 135.302 100.467 134.49 99.0503C133.264 96.9432 133.972 94.2315 136.079 93.0052C136.2 92.9362 140.328 90.2418 140.328 83.4885C140.328 76.7353 136.2 74.0409 136.01 73.92C133.972 72.6419 133.298 69.9302 134.559 67.8749C135.803 65.8023 138.445 65.1114 140.535 66.3204C140.881 66.5277 149.171 71.4847 149.171 83.4885C149.171 95.4924 140.881 100.449 140.535 100.657C139.827 101.054 139.067 101.244 138.307 101.244Z" fill="#B02F36"/>
<path d="M55.8295 151.747L55.0304 149.216H50.5969L49.7978 151.747H47.5335L51.8527 138.808H53.8697L58.208 151.747H55.8295ZM51.8337 145.258L51.2439 147.123H54.3644L53.7745 145.258L52.8232 141.986L51.8337 145.258ZM65.7373 151.747V150.472C65.1538 150.979 64.6083 151.354 64.1009 151.595C63.5935 151.823 63.0798 151.937 62.5597 151.937C61.6971 151.937 61.0311 151.645 60.5618 151.062C60.0924 150.466 59.8577 149.635 59.8577 148.569V142.1H62.0459V148.303C62.0459 149.368 62.4392 149.901 63.2256 149.901C63.5428 149.901 63.8853 149.825 64.2531 149.673C64.6337 149.521 65.0904 149.229 65.6231 148.798V142.1H67.8113V151.747H65.7373ZM76.4753 151.747V150.434C75.8918 151.017 75.3844 151.417 74.9531 151.633C74.5345 151.836 74.0968 151.937 73.6402 151.937C72.6 151.937 71.7881 151.544 71.2046 150.757C70.6338 149.971 70.3484 148.867 70.3484 147.447V146.419C70.3484 145.036 70.6972 143.939 71.3949 143.127C72.0926 142.316 73.1011 141.91 74.4203 141.91C74.7501 141.91 75.0736 141.941 75.3907 142.005C75.7205 142.068 76.044 142.157 76.3611 142.271V137.666H78.5493V151.747H76.4753ZM72.5937 147.447C72.5937 148.297 72.7332 148.918 73.0123 149.311C73.304 149.705 73.7099 149.901 74.23 149.901C74.5218 149.901 74.8326 149.819 75.1624 149.654C75.4922 149.476 75.8918 149.146 76.3611 148.664V144.25C75.7396 143.996 75.1687 143.869 74.6486 143.869C73.9129 143.869 73.3865 144.098 73.0693 144.554C72.7522 145.011 72.5937 145.633 72.5937 146.419V147.447ZM83.8096 140.273H81.5072V138.009H83.8096V140.273ZM83.7525 151.747H81.5643V142.1H83.7525V151.747ZM94.6637 146.343V147.485C94.6637 148.829 94.2958 149.908 93.5601 150.719C92.8243 151.531 91.7841 151.937 90.4395 151.937C89.0949 151.937 88.0547 151.531 87.319 150.719C86.5833 149.908 86.2154 148.829 86.2154 147.485V146.343C86.2154 144.998 86.5769 143.927 87.3 143.127C88.0357 142.316 89.0822 141.91 90.4395 141.91C91.7968 141.91 92.837 142.316 93.5601 143.127C94.2958 143.927 94.6637 144.998 94.6637 146.343ZM92.4184 146.343C92.4184 145.569 92.2472 144.967 91.9047 144.535C91.5622 144.091 91.0738 143.869 90.4395 143.869C89.8053 143.869 89.3169 144.091 88.9744 144.535C88.6319 144.967 88.4606 145.569 88.4606 146.343V147.485C88.4606 148.258 88.6319 148.867 88.9744 149.311C89.3169 149.755 89.8053 149.977 90.4395 149.977C91.0738 149.977 91.5622 149.755 91.9047 149.311C92.2472 148.867 92.4184 148.258 92.4184 147.485V146.343ZM103.495 151.747H101.212V138.808H103.495V151.747ZM111.499 143.946C111.181 143.946 110.82 144.022 110.414 144.174C110.008 144.326 109.526 144.624 108.968 145.068V151.747H106.78V142.1H108.854V143.394C109.45 142.874 110.014 142.499 110.547 142.271C111.08 142.03 111.619 141.91 112.165 141.91C113.091 141.91 113.795 142.208 114.277 142.804C114.759 143.387 115 144.212 115 145.277V151.747H112.811V145.544C112.811 144.478 112.374 143.946 111.499 143.946ZM123.695 151.423C123.365 151.576 122.985 151.696 122.553 151.785C122.122 151.886 121.684 151.937 121.24 151.937C120.505 151.937 119.915 151.785 119.471 151.48C119.027 151.176 118.703 150.751 118.5 150.206C118.31 149.66 118.215 149.039 118.215 148.341V144.003H116.655V142.1H118.215V139.588H120.403V142.1H123.41V144.003H120.403V148.341C120.403 148.924 120.511 149.33 120.727 149.559C120.955 149.774 121.278 149.882 121.697 149.882C121.9 149.882 122.116 149.863 122.344 149.825C122.585 149.774 122.851 149.692 123.143 149.578L123.695 151.423ZM132.78 151.195C132.12 151.461 131.499 151.652 130.915 151.766C130.332 151.88 129.78 151.937 129.26 151.937C127.826 151.937 126.742 151.531 126.006 150.719C125.27 149.908 124.903 148.829 124.903 147.485V146.343C124.903 145.442 125.067 144.662 125.397 144.003C125.727 143.343 126.196 142.829 126.805 142.461C127.414 142.094 128.131 141.91 128.955 141.91C129.628 141.91 130.256 142.049 130.839 142.328C131.435 142.595 131.917 143.02 132.285 143.603C132.666 144.174 132.856 144.91 132.856 145.81C132.856 146.077 132.837 146.362 132.799 146.666C132.761 146.958 132.698 147.269 132.609 147.599H127.015C127.04 148.385 127.237 148.975 127.604 149.368C127.972 149.762 128.562 149.958 129.374 149.958C129.805 149.958 130.249 149.908 130.706 149.806C131.175 149.705 131.657 149.552 132.152 149.349L132.78 151.195ZM128.955 143.755C128.372 143.755 127.915 143.946 127.585 144.326C127.268 144.694 127.084 145.227 127.034 145.924H130.687C130.7 145.861 130.706 145.804 130.706 145.753C130.706 145.69 130.706 145.633 130.706 145.582C130.706 144.973 130.535 144.516 130.192 144.212C129.85 143.907 129.437 143.755 128.955 143.755ZM143.388 152.717C143.388 153.745 142.982 154.544 142.17 155.115C141.371 155.698 140.254 155.99 138.821 155.99C138.149 155.99 137.438 155.914 136.69 155.762C135.941 155.61 135.25 155.356 134.616 155.001L135.244 153.269C135.853 153.574 136.455 153.789 137.051 153.916C137.648 154.056 138.231 154.125 138.802 154.125C139.601 154.125 140.21 154.018 140.629 153.802C141.047 153.586 141.256 153.301 141.256 152.946C141.256 152.4 140.933 152.127 140.286 152.127H138.003C137.381 152.127 136.88 152.026 136.5 151.823C136.119 151.62 135.84 151.36 135.662 151.043C135.485 150.713 135.396 150.371 135.396 150.015C135.396 149.648 135.472 149.305 135.624 148.988C135.789 148.658 136.011 148.354 136.29 148.075C135.834 147.795 135.466 147.421 135.187 146.952C134.92 146.483 134.787 145.918 134.787 145.258C134.787 144.51 134.946 143.888 135.263 143.394C135.58 142.899 136.011 142.531 136.557 142.29C137.115 142.036 137.73 141.91 138.402 141.91H138.726C138.98 141.91 139.227 141.929 139.468 141.967C139.709 141.992 139.937 142.036 140.153 142.1H143.597V143.965L141.694 143.66C141.884 143.863 142.03 144.117 142.132 144.421C142.246 144.713 142.303 145.075 142.303 145.506C142.303 146.153 142.138 146.711 141.808 147.18C141.491 147.637 141.06 147.992 140.514 148.246C139.982 148.487 139.385 148.607 138.726 148.607H138.402C138.149 148.607 137.908 148.588 137.679 148.55C137.54 148.702 137.438 148.861 137.375 149.026C137.311 149.178 137.28 149.324 137.28 149.464C137.28 149.908 137.565 150.13 138.136 150.13H140.457C141.333 150.13 142.037 150.358 142.569 150.815C143.115 151.259 143.388 151.893 143.388 152.717ZM138.726 146.819C139.119 146.819 139.462 146.686 139.753 146.419C140.058 146.153 140.21 145.766 140.21 145.258C140.21 144.751 140.058 144.364 139.753 144.098C139.462 143.831 139.119 143.698 138.726 143.698H138.402C137.996 143.698 137.641 143.831 137.337 144.098C137.045 144.364 136.899 144.751 136.899 145.258C136.899 145.766 137.045 146.153 137.337 146.419C137.641 146.686 137.996 146.819 138.402 146.819H138.726ZM150.927 144.098C150.331 144.098 149.76 144.193 149.215 144.383C148.682 144.561 148.168 144.853 147.674 145.258V151.747H145.485V142.1H147.559V143.584C148.206 142.975 148.784 142.544 149.291 142.29C149.798 142.036 150.344 141.91 150.927 141.91V144.098ZM160.15 151.842C159.503 151.842 158.983 151.709 158.59 151.442C158.21 151.176 157.93 150.846 157.753 150.453C157.207 150.96 156.681 151.335 156.174 151.576C155.666 151.817 155.121 151.937 154.537 151.937C153.687 151.937 153.059 151.664 152.653 151.119C152.26 150.574 152.064 149.882 152.064 149.045C152.064 148.487 152.165 147.998 152.368 147.58C152.584 147.149 152.933 146.812 153.415 146.571C153.897 146.33 154.556 146.21 155.393 146.21C155.723 146.21 156.066 146.235 156.421 146.286C156.776 146.324 157.131 146.375 157.487 146.438V145.316C157.487 144.783 157.341 144.421 157.049 144.231C156.757 144.028 156.364 143.927 155.869 143.927C155.489 143.927 155.07 143.977 154.613 144.079C154.169 144.18 153.687 144.339 153.167 144.554L152.539 142.69C153.821 142.17 154.981 141.91 156.021 141.91C156.96 141.91 157.683 142.068 158.191 142.385C158.711 142.702 159.072 143.121 159.275 143.641C159.478 144.161 159.58 144.719 159.58 145.316V149.026C159.58 149.216 159.63 149.4 159.732 149.578C159.846 149.743 160.062 149.825 160.379 149.825H160.588V151.842H160.15ZM154.176 149.007C154.176 149.349 154.252 149.622 154.404 149.825C154.556 150.015 154.778 150.111 155.07 150.111C155.362 150.111 155.692 150.034 156.059 149.882C156.427 149.73 156.903 149.375 157.487 148.817V147.998C156.827 147.884 156.18 147.827 155.546 147.827C155.051 147.827 154.696 147.929 154.48 148.132C154.277 148.335 154.176 148.626 154.176 149.007ZM168.291 151.423C167.961 151.576 167.581 151.696 167.149 151.785C166.718 151.886 166.281 151.937 165.837 151.937C165.101 151.937 164.511 151.785 164.067 151.48C163.623 151.176 163.3 150.751 163.097 150.206C162.906 149.66 162.811 149.039 162.811 148.341V144.003H161.251V142.1H162.811V139.588H164.999V142.1H168.006V144.003H164.999V148.341C164.999 148.924 165.107 149.33 165.323 149.559C165.551 149.774 165.875 149.882 166.293 149.882C166.496 149.882 166.712 149.863 166.94 149.825C167.181 149.774 167.448 149.692 167.739 149.578L168.291 151.423ZM172.296 140.273H169.993V138.009H172.296V140.273ZM172.239 151.747H170.05V142.1H172.239V151.747ZM183.15 146.343V147.485C183.15 148.829 182.782 149.908 182.046 150.719C181.31 151.531 180.27 151.937 178.926 151.937C177.581 151.937 176.541 151.531 175.805 150.719C175.069 149.908 174.702 148.829 174.702 147.485V146.343C174.702 144.998 175.063 143.927 175.786 143.127C176.522 142.316 177.568 141.91 178.926 141.91C180.283 141.91 181.323 142.316 182.046 143.127C182.782 143.927 183.15 144.998 183.15 146.343ZM180.905 146.343C180.905 145.569 180.733 144.967 180.391 144.535C180.048 144.091 179.56 143.869 178.926 143.869C178.291 143.869 177.803 144.091 177.461 144.535C177.118 144.967 176.947 145.569 176.947 146.343V147.485C176.947 148.258 177.118 148.867 177.461 149.311C177.803 149.755 178.291 149.977 178.926 149.977C179.56 149.977 180.048 149.755 180.391 149.311C180.733 148.867 180.905 148.258 180.905 147.485V146.343ZM190.322 143.946C190.005 143.946 189.644 144.022 189.238 144.174C188.832 144.326 188.35 144.624 187.791 145.068V151.747H185.603V142.1H187.677V143.394C188.274 142.874 188.838 142.499 189.371 142.271C189.904 142.03 190.443 141.91 190.988 141.91C191.914 141.91 192.618 142.208 193.1 142.804C193.582 143.387 193.823 144.212 193.823 145.277V151.747H191.635V145.544C191.635 144.478 191.197 143.946 190.322 143.946Z" fill="#414141"/>
<defs>
<filter id="filter0_d_681_434" x="7.59503" y="0.58582" width="234.257" height="234.257" filterUnits="userSpaceOnUse" color-interpolation-filters="sRGB">
<feFlood flood-opacity="0" result="BackgroundImageFix"/>
<feColorMatrix in="SourceAlpha" type="matrix" values="0 0 0 0 0 0 0 0 0 0 0 0 0 0 0 0 0 0 127 0" result="hardAlpha"/>
<feOffset dx="3.42815" dy="15.4267"/>
<feGaussianBlur stdDeviation="8.57037"/>
<feComposite in2="hardAlpha" operator="out"/>
<feColorMatrix type="matrix" values="0 0 0 0 0 0 0 0 0 0 0 0 0 0 0 0 0 0 0.25 0"/>
<feBlend mode="normal" in2="BackgroundImageFix" result="effect1_dropShadow_681_434"/>
<feBlend mode="normal" in="SourceGraphic" in2="effect1_dropShadow_681_434" result="shape"/>
</filter>
</defs>
</svg>
