<svg width="242" height="235" viewBox="0 0 242 235" fill="none" xmlns="http://www.w3.org/2000/svg">
<g filter="url(#filter0_d_681_429)">
<circle cx="120.939" cy="102.288" r="99.9876" fill="white"/>
<circle cx="120.939" cy="102.288" r="98.5592" stroke="#A0A0A0" stroke-width="2.85679"/>
</g>
<path fill-rule="evenodd" clip-rule="evenodd" d="M125.345 91.1785V122.895H115.977V91.1785C112.9 89.5129 110.81 86.2561 110.81 82.5099C110.81 77.07 115.221 72.6587 120.661 72.6587C126.101 72.6587 130.513 77.07 130.513 82.5099C130.513 86.2561 128.423 89.5129 125.345 91.1785ZM106.821 54.4237C108.646 53.5239 109.394 51.3145 108.494 49.4918C107.594 47.6685 105.387 46.9195 103.563 47.8187C96.1173 51.4916 90.3263 57.5679 86.6672 64.7229C83.9641 70.007 82.423 75.8868 82.2372 81.8204C82.0501 87.8041 83.2302 93.8484 85.9745 99.4116C89.354 106.265 95.0836 112.361 103.519 116.676C105.326 117.6 107.542 116.883 108.465 115.075C109.389 113.267 108.672 111.053 106.864 110.129C99.9585 106.597 95.2976 101.667 92.5776 96.1548C90.3839 91.7054 89.4403 86.8586 89.5905 82.0519C89.7425 77.1983 91.0021 72.3897 93.2134 68.0685C96.1742 62.2801 100.84 57.3733 106.821 54.4237ZM137.76 47.8181C135.936 46.9183 133.728 47.6679 132.828 49.4912C131.929 51.3145 132.677 53.5239 134.501 54.4231C140.484 57.3733 145.149 62.2795 148.109 68.0685C150.319 72.3891 151.58 77.1976 151.731 82.0519C151.881 86.8586 150.938 91.7054 148.745 96.1548C146.025 101.667 141.364 106.597 134.458 110.129C132.65 111.054 131.934 113.268 132.857 115.075C133.781 116.883 135.996 117.6 137.803 116.676C146.238 112.361 151.968 106.265 155.348 99.4116C158.092 93.8484 159.272 87.8041 159.085 81.8204C158.899 75.8868 157.358 70.007 154.656 64.7229C150.996 57.5679 145.206 51.4916 137.76 47.8181ZM134.022 64.0221C132.648 63.0328 130.733 63.3451 129.744 64.7185C128.755 66.0919 129.067 68.0072 130.44 68.9965C130.994 69.395 131.537 69.8424 132.069 70.3317C135.18 73.1994 137.024 77.0231 137.412 81.0689C137.803 85.1511 136.716 89.4766 133.959 93.3028C133.491 93.9529 132.952 94.6118 132.342 95.2738C131.193 96.5202 131.273 98.4637 132.521 99.6112C133.769 100.759 135.712 100.678 136.859 99.4316C137.597 98.6314 138.29 97.7791 138.933 96.8837C142.601 91.7911 144.043 85.9964 143.515 80.492C142.984 74.9526 140.467 69.7248 136.227 65.8147C135.56 65.1997 134.824 64.6015 134.022 64.0221ZM110.882 68.9983C112.256 68.0091 112.568 66.0938 111.579 64.7204C110.589 63.3469 108.674 63.0347 107.301 64.0233C106.497 64.6027 105.763 65.2009 105.096 65.8154C100.855 69.726 98.3373 74.9532 97.8067 80.4926C97.2786 85.9964 98.7202 91.793 102.389 96.8856C103.034 97.7804 103.725 98.632 104.463 99.4323C105.611 100.679 107.553 100.759 108.8 99.6118C110.049 98.4643 110.129 96.5215 108.981 95.2744C108.371 94.6118 107.831 93.9535 107.363 93.3034C104.606 89.4772 103.519 85.1523 103.911 81.0702C104.298 77.025 106.142 73.2006 109.253 70.333C109.786 69.8443 110.329 69.3969 110.882 68.9983Z" fill="#B02F36"/>
<path d="M67.3696 156.491V158.679H59.9107V145.74H62.1941V156.491H67.3696ZM71.5145 147.205H69.2121V144.941H71.5145V147.205ZM71.4574 158.679H69.2692V149.032H71.4574V158.679ZM82.1403 149.032L78.7153 158.679H76.7174L73.2924 149.032H75.4996L77.155 153.846L77.7829 155.844L78.3918 153.846L79.9711 149.032H82.1403ZM91.1072 158.127C90.4476 158.393 89.826 158.584 89.2425 158.698C88.659 158.812 88.1072 158.869 87.5871 158.869C86.1537 158.869 85.0691 158.463 84.3334 157.651C83.5976 156.839 83.2297 155.761 83.2297 154.417V153.275C83.2297 152.374 83.3947 151.594 83.7245 150.934C84.0543 150.275 84.5236 149.761 85.1325 149.393C85.7414 149.025 86.4581 148.841 87.2826 148.841C87.955 148.841 88.5829 148.981 89.1664 149.26C89.7626 149.526 90.2446 149.951 90.6125 150.535C90.993 151.106 91.1833 151.841 91.1833 152.742C91.1833 153.008 91.1643 153.294 91.1262 153.598C91.0882 153.89 91.0248 154.201 90.936 154.531H85.3418C85.3672 155.317 85.5638 155.907 85.9317 156.3C86.2995 156.693 86.8894 156.89 87.7013 156.89C88.1325 156.89 88.5765 156.839 89.0332 156.738C89.5025 156.636 89.9846 156.484 90.4793 156.281L91.1072 158.127ZM87.2826 150.687C86.6991 150.687 86.2425 150.877 85.9127 151.258C85.5955 151.626 85.4116 152.159 85.3608 152.856H89.0142C89.0268 152.793 89.0332 152.736 89.0332 152.685C89.0332 152.622 89.0332 152.564 89.0332 152.514C89.0332 151.905 88.8619 151.448 88.5194 151.144C88.1769 150.839 87.7647 150.687 87.2826 150.687ZM100.615 156.757C102.086 156.757 102.822 156.211 102.822 155.121C102.822 154.677 102.708 154.328 102.48 154.074C102.264 153.82 101.858 153.598 101.262 153.408L99.7016 152.894C97.8369 152.285 96.9046 151.061 96.9046 149.222C96.9046 148.156 97.2344 147.281 97.894 146.596C98.5663 145.898 99.6128 145.55 101.034 145.55C101.63 145.55 102.22 145.619 102.803 145.759C103.387 145.886 104.008 146.095 104.668 146.387L103.964 148.347C103.355 148.106 102.835 147.934 102.404 147.833C101.985 147.719 101.554 147.662 101.11 147.662C100.526 147.662 100.063 147.77 99.7207 147.985C99.3908 148.188 99.2259 148.562 99.2259 149.108C99.2259 149.514 99.3401 149.85 99.5684 150.116C99.8094 150.37 100.203 150.586 100.748 150.763L102.308 151.277C103.247 151.594 103.951 152.057 104.42 152.666C104.903 153.262 105.144 154.055 105.144 155.044C105.144 156.186 104.782 157.112 104.059 157.822C103.336 158.52 102.201 158.869 100.653 158.869C100.044 158.869 99.4099 158.799 98.7502 158.66C98.1033 158.507 97.3929 158.254 96.6191 157.899L97.3232 155.939C98.0335 156.243 98.6361 156.459 99.1308 156.586C99.6382 156.7 100.133 156.757 100.615 156.757ZM113.165 158.355C112.835 158.507 112.455 158.628 112.024 158.717C111.592 158.818 111.155 158.869 110.711 158.869C109.975 158.869 109.385 158.717 108.941 158.412C108.497 158.108 108.174 157.683 107.971 157.137C107.78 156.592 107.685 155.97 107.685 155.273V150.934H106.125V149.032H107.685V146.52H109.873V149.032H112.88V150.934H109.873V155.273C109.873 155.856 109.981 156.262 110.197 156.491C110.425 156.706 110.749 156.814 111.167 156.814C111.37 156.814 111.586 156.795 111.814 156.757C112.055 156.706 112.322 156.624 112.613 156.51L113.165 158.355ZM120.366 151.03C119.77 151.03 119.199 151.125 118.654 151.315C118.121 151.493 117.607 151.784 117.113 152.19V158.679H114.924V149.032H116.999V150.516C117.645 149.907 118.223 149.476 118.73 149.222C119.237 148.968 119.783 148.841 120.366 148.841V151.03ZM129.609 158.127C128.949 158.393 128.327 158.584 127.744 158.698C127.16 158.812 126.608 158.869 126.088 158.869C124.655 158.869 123.57 158.463 122.835 157.651C122.099 156.839 121.731 155.761 121.731 154.417V153.275C121.731 152.374 121.896 151.594 122.226 150.934C122.556 150.275 123.025 149.761 123.634 149.393C124.243 149.025 124.959 148.841 125.784 148.841C126.456 148.841 127.084 148.981 127.668 149.26C128.264 149.526 128.746 149.951 129.114 150.535C129.494 151.106 129.685 151.841 129.685 152.742C129.685 153.008 129.666 153.294 129.628 153.598C129.589 153.89 129.526 154.201 129.437 154.531H123.843C123.869 155.317 124.065 155.907 124.433 156.3C124.801 156.693 125.391 156.89 126.203 156.89C126.634 156.89 127.078 156.839 127.535 156.738C128.004 156.636 128.486 156.484 128.981 156.281L129.609 158.127ZM125.784 150.687C125.2 150.687 124.744 150.877 124.414 151.258C124.097 151.626 123.913 152.159 123.862 152.856H127.515C127.528 152.793 127.535 152.736 127.535 152.685C127.535 152.622 127.535 152.564 127.535 152.514C127.535 151.905 127.363 151.448 127.021 151.144C126.678 150.839 126.266 150.687 125.784 150.687ZM139.512 158.774C138.865 158.774 138.345 158.641 137.952 158.374C137.571 158.108 137.292 157.778 137.115 157.385C136.569 157.892 136.043 158.266 135.535 158.507C135.028 158.748 134.482 158.869 133.899 158.869C133.049 158.869 132.421 158.596 132.015 158.051C131.622 157.505 131.425 156.814 131.425 155.977C131.425 155.419 131.527 154.93 131.73 154.512C131.945 154.08 132.294 153.744 132.776 153.503C133.258 153.262 133.918 153.142 134.755 153.142C135.085 153.142 135.428 153.167 135.783 153.218C136.138 153.256 136.493 153.307 136.848 153.37V152.247C136.848 151.715 136.702 151.353 136.411 151.163C136.119 150.96 135.726 150.858 135.231 150.858C134.85 150.858 134.432 150.909 133.975 151.011C133.531 151.112 133.049 151.271 132.529 151.486L131.901 149.622C133.182 149.101 134.343 148.841 135.383 148.841C136.322 148.841 137.045 149 137.552 149.317C138.072 149.634 138.434 150.053 138.637 150.573C138.84 151.093 138.941 151.651 138.941 152.247V155.958C138.941 156.148 138.992 156.332 139.094 156.51C139.208 156.674 139.423 156.757 139.74 156.757H139.95V158.774H139.512ZM133.537 155.939C133.537 156.281 133.614 156.554 133.766 156.757C133.918 156.947 134.14 157.042 134.432 157.042C134.723 157.042 135.053 156.966 135.421 156.814C135.789 156.662 136.265 156.307 136.848 155.748V154.93C136.189 154.816 135.542 154.759 134.907 154.759C134.413 154.759 134.058 154.86 133.842 155.063C133.639 155.266 133.537 155.558 133.537 155.939ZM144.038 152V158.679H141.849V149.032H143.923V150.307C144.52 149.786 145.071 149.412 145.579 149.184C146.086 148.956 146.606 148.841 147.139 148.841C148.319 148.841 149.124 149.361 149.556 150.402C150.19 149.844 150.78 149.444 151.325 149.203C151.871 148.962 152.422 148.841 152.981 148.841C153.869 148.841 154.547 149.14 155.017 149.736C155.486 150.319 155.721 151.144 155.721 152.209V158.679H153.532V152.476C153.532 151.41 153.126 150.877 152.315 150.877C151.998 150.877 151.649 150.953 151.268 151.106C150.888 151.258 150.425 151.556 149.879 152V158.679H147.691V152.476C147.691 151.41 147.285 150.877 146.473 150.877C146.156 150.877 145.807 150.953 145.427 151.106C145.046 151.258 144.583 151.556 144.038 152ZM160.855 147.205H158.553V144.941H160.855V147.205ZM160.798 158.679H158.61V149.032H160.798V158.679ZM168.532 150.877C168.215 150.877 167.853 150.953 167.447 151.106C167.041 151.258 166.559 151.556 166.001 152V158.679H163.813V149.032H165.887V150.326C166.483 149.805 167.048 149.431 167.58 149.203C168.113 148.962 168.652 148.841 169.198 148.841C170.124 148.841 170.828 149.14 171.31 149.736C171.792 150.319 172.033 151.144 172.033 152.209V158.679H169.845V152.476C169.845 151.41 169.407 150.877 168.532 150.877ZM182.935 159.649C182.935 160.677 182.53 161.476 181.718 162.047C180.919 162.63 179.802 162.922 178.369 162.922C177.697 162.922 176.986 162.846 176.238 162.694C175.489 162.541 174.798 162.288 174.164 161.932L174.792 160.201C175.401 160.505 176.003 160.721 176.599 160.848C177.195 160.987 177.779 161.057 178.35 161.057C179.149 161.057 179.758 160.949 180.176 160.734C180.595 160.518 180.804 160.233 180.804 159.877C180.804 159.332 180.481 159.059 179.834 159.059H177.551C176.929 159.059 176.428 158.958 176.047 158.755C175.667 158.552 175.388 158.292 175.21 157.975C175.033 157.645 174.944 157.302 174.944 156.947C174.944 156.579 175.02 156.237 175.172 155.92C175.337 155.59 175.559 155.285 175.838 155.006C175.382 154.727 175.014 154.353 174.735 153.884C174.468 153.414 174.335 152.85 174.335 152.19C174.335 151.442 174.494 150.82 174.811 150.326C175.128 149.831 175.559 149.463 176.105 149.222C176.663 148.968 177.278 148.841 177.95 148.841H178.274C178.527 148.841 178.775 148.86 179.016 148.898C179.257 148.924 179.485 148.968 179.701 149.032H183.145V150.896L181.242 150.592C181.432 150.795 181.578 151.049 181.68 151.353C181.794 151.645 181.851 152.006 181.851 152.438C181.851 153.085 181.686 153.643 181.356 154.112C181.039 154.569 180.608 154.924 180.062 155.178C179.53 155.419 178.933 155.539 178.274 155.539H177.95C177.697 155.539 177.456 155.52 177.227 155.482C177.088 155.634 176.986 155.793 176.923 155.958C176.859 156.11 176.828 156.256 176.828 156.395C176.828 156.839 177.113 157.061 177.684 157.061H180.005C180.881 157.061 181.585 157.29 182.117 157.746C182.663 158.19 182.935 158.825 182.935 159.649ZM178.274 153.751C178.667 153.751 179.009 153.617 179.301 153.351C179.606 153.085 179.758 152.698 179.758 152.19C179.758 151.683 179.606 151.296 179.301 151.03C179.009 150.763 178.667 150.63 178.274 150.63H177.95C177.544 150.63 177.189 150.763 176.885 151.03C176.593 151.296 176.447 151.683 176.447 152.19C176.447 152.698 176.593 153.085 176.885 153.351C177.189 153.617 177.544 153.751 177.95 153.751H178.274Z" fill="#414141"/>
<defs>
<filter id="filter0_d_681_429" x="7.23883" y="0.58582" width="234.257" height="234.257" filterUnits="userSpaceOnUse" color-interpolation-filters="sRGB">
<feFlood flood-opacity="0" result="BackgroundImageFix"/>
<feColorMatrix in="SourceAlpha" type="matrix" values="0 0 0 0 0 0 0 0 0 0 0 0 0 0 0 0 0 0 127 0" result="hardAlpha"/>
<feOffset dx="3.42815" dy="15.4267"/>
<feGaussianBlur stdDeviation="8.57037"/>
<feComposite in2="hardAlpha" operator="out"/>
<feColorMatrix type="matrix" values="0 0 0 0 0 0 0 0 0 0 0 0 0 0 0 0 0 0 0.25 0"/>
<feBlend mode="normal" in2="BackgroundImageFix" result="effect1_dropShadow_681_429"/>
<feBlend mode="normal" in="SourceGraphic" in2="effect1_dropShadow_681_429" result="shape"/>
</filter>
</defs>
</svg>
