<svg width="242" height="235" viewBox="0 0 242 235" fill="none" xmlns="http://www.w3.org/2000/svg">
<g filter="url(#filter0_d_697_634)">
<circle cx="121.087" cy="102.012" r="99.9876" fill="#B02F36"/>
<circle cx="121.087" cy="102.012" r="98.5592" stroke="#A0A0A0" stroke-width="2.85679"/>
</g>
<path d="M126.748 45.8222L95.6464 69.1866C95.4414 69.3403 95.3048 69.5452 95.1853 69.7502H77.2521V96.1376H95.1853C95.3048 96.3425 95.4585 96.5475 95.6464 96.7012L126.748 120.048C127.977 120.971 129.736 120.1 129.736 118.563V47.3252C129.736 45.788 127.977 44.8999 126.748 45.8222ZM147.618 113.627C146.115 113.627 144.647 112.858 143.827 111.458C142.614 109.374 143.314 106.693 145.398 105.48C145.808 105.241 155.936 98.9215 155.936 82.9353C155.936 66.7101 145.501 60.4591 145.398 60.3908C143.314 59.1781 142.614 56.4967 143.827 54.413C145.039 52.3294 147.721 51.6291 149.805 52.8417C150.437 53.1833 164.698 61.7571 164.698 82.9353C164.698 104.114 150.437 112.687 149.822 113.029C149.121 113.439 148.37 113.627 147.618 113.627Z" fill="white"/>
<path d="M138.099 100.784C136.579 100.784 135.094 100.007 134.282 98.5903C133.056 96.4832 133.764 93.7715 135.871 92.5452C135.992 92.4761 140.12 89.7817 140.12 83.0285C140.12 76.2753 135.992 73.5809 135.802 73.46C133.764 72.1819 133.091 69.4702 134.351 67.4149C135.595 65.3423 138.238 64.6514 140.327 65.8604C140.673 66.0677 148.963 71.0247 148.963 83.0285C148.963 95.0323 140.673 99.9893 140.327 100.197C139.619 100.594 138.859 100.784 138.099 100.784Z" fill="white"/>
<path d="M55.6216 151.472L54.8225 148.941H50.389L49.5899 151.472H47.3256L51.6449 138.533H53.6618L58.0001 151.472H55.6216ZM51.6258 144.983L51.036 146.848H54.1565L53.5667 144.983L52.6153 141.71L51.6258 144.983ZM65.5294 151.472V150.197C64.9459 150.704 64.4004 151.078 63.893 151.319C63.3856 151.548 62.8719 151.662 62.3518 151.662C61.4892 151.662 60.8232 151.37 60.3539 150.787C59.8845 150.19 59.6499 149.36 59.6499 148.294V141.825H61.838V148.028C61.838 149.093 62.2313 149.626 63.0178 149.626C63.3349 149.626 63.6774 149.55 64.0453 149.398C64.4258 149.245 64.8825 148.954 65.4152 148.522V141.825H67.6034V151.472H65.5294ZM76.2674 151.472V150.159C75.6839 150.742 75.1765 151.142 74.7452 151.357C74.3266 151.56 73.889 151.662 73.4323 151.662C72.3921 151.662 71.5803 151.269 70.9967 150.482C70.4259 149.696 70.1405 148.592 70.1405 147.171V146.144C70.1405 144.761 70.4893 143.664 71.187 142.852C71.8847 142.04 72.8932 141.634 74.2124 141.634C74.5422 141.634 74.8657 141.666 75.1828 141.729C75.5126 141.793 75.8361 141.882 76.1532 141.996V137.391H78.3414V151.472H76.2674ZM72.3858 147.171C72.3858 148.021 72.5253 148.643 72.8044 149.036C73.0961 149.429 73.5021 149.626 74.0221 149.626C74.3139 149.626 74.6247 149.543 74.9545 149.379C75.2843 149.201 75.6839 148.871 76.1532 148.389V143.975C75.5317 143.721 74.9608 143.594 74.4408 143.594C73.705 143.594 73.1786 143.822 72.8615 144.279C72.5443 144.736 72.3858 145.357 72.3858 146.144V147.171ZM83.6017 139.998H81.2993V137.734H83.6017V139.998ZM83.5446 151.472H81.3564V141.825H83.5446V151.472ZM94.4558 146.068V147.209C94.4558 148.554 94.0879 149.632 93.3522 150.444C92.6164 151.256 91.5763 151.662 90.2316 151.662C88.887 151.662 87.8468 151.256 87.1111 150.444C86.3754 149.632 86.0075 148.554 86.0075 147.209V146.068C86.0075 144.723 86.369 143.651 87.0921 142.852C87.8278 142.04 88.8743 141.634 90.2316 141.634C91.5889 141.634 92.6291 142.04 93.3522 142.852C94.0879 143.651 94.4558 144.723 94.4558 146.068ZM92.2105 146.068C92.2105 145.294 92.0393 144.691 91.6968 144.26C91.3543 143.816 90.8659 143.594 90.2316 143.594C89.5974 143.594 89.109 143.816 88.7665 144.26C88.424 144.691 88.2528 145.294 88.2528 146.068V147.209C88.2528 147.983 88.424 148.592 88.7665 149.036C89.109 149.48 89.5974 149.702 90.2316 149.702C90.8659 149.702 91.3543 149.48 91.6968 149.036C92.0393 148.592 92.2105 147.983 92.2105 147.209V146.068ZM103.287 151.472H101.004V138.533H103.287V151.472ZM111.291 143.67C110.974 143.67 110.612 143.746 110.206 143.899C109.8 144.051 109.318 144.349 108.76 144.793V151.472H106.572V141.825H108.646V143.118C109.242 142.598 109.807 142.224 110.339 141.996C110.872 141.755 111.411 141.634 111.957 141.634C112.883 141.634 113.587 141.932 114.069 142.529C114.551 143.112 114.792 143.937 114.792 145.002V151.472H112.604V145.269C112.604 144.203 112.166 143.67 111.291 143.67ZM123.487 151.148C123.157 151.3 122.777 151.421 122.345 151.51C121.914 151.611 121.477 151.662 121.033 151.662C120.297 151.662 119.707 151.51 119.263 151.205C118.819 150.901 118.496 150.476 118.293 149.93C118.102 149.385 118.007 148.763 118.007 148.066V143.727H116.447V141.825H118.007V139.313H120.195V141.825H123.202V143.727H120.195V148.066C120.195 148.649 120.303 149.055 120.519 149.283C120.747 149.499 121.071 149.607 121.489 149.607C121.692 149.607 121.908 149.588 122.136 149.55C122.377 149.499 122.644 149.417 122.935 149.302L123.487 151.148ZM132.572 150.92C131.912 151.186 131.291 151.376 130.707 151.491C130.124 151.605 129.572 151.662 129.052 151.662C127.619 151.662 126.534 151.256 125.798 150.444C125.062 149.632 124.695 148.554 124.695 147.209V146.068C124.695 145.167 124.86 144.387 125.189 143.727C125.519 143.068 125.989 142.554 126.597 142.186C127.206 141.818 127.923 141.634 128.748 141.634C129.42 141.634 130.048 141.774 130.631 142.053C131.227 142.319 131.709 142.744 132.077 143.328C132.458 143.899 132.648 144.634 132.648 145.535C132.648 145.801 132.629 146.087 132.591 146.391C132.553 146.683 132.49 146.994 132.401 147.324H126.807C126.832 148.11 127.029 148.7 127.397 149.093C127.764 149.486 128.354 149.683 129.166 149.683C129.597 149.683 130.041 149.632 130.498 149.531C130.967 149.429 131.449 149.277 131.944 149.074L132.572 150.92ZM128.748 143.48C128.164 143.48 127.707 143.67 127.378 144.051C127.06 144.419 126.876 144.951 126.826 145.649H130.479C130.492 145.586 130.498 145.529 130.498 145.478C130.498 145.414 130.498 145.357 130.498 145.307C130.498 144.698 130.327 144.241 129.984 143.937C129.642 143.632 129.23 143.48 128.748 143.48ZM143.18 152.442C143.18 153.47 142.774 154.269 141.962 154.84C141.163 155.423 140.046 155.715 138.613 155.715C137.941 155.715 137.23 155.639 136.482 155.486C135.734 155.334 135.042 155.081 134.408 154.725L135.036 152.994C135.645 153.298 136.247 153.514 136.843 153.641C137.44 153.78 138.023 153.85 138.594 153.85C139.393 153.85 140.002 153.742 140.421 153.527C140.839 153.311 141.049 153.026 141.049 152.67C141.049 152.125 140.725 151.852 140.078 151.852H137.795C137.173 151.852 136.672 151.751 136.292 151.548C135.911 151.345 135.632 151.085 135.454 150.768C135.277 150.438 135.188 150.095 135.188 149.74C135.188 149.372 135.264 149.03 135.416 148.713C135.581 148.383 135.803 148.078 136.082 147.799C135.626 147.52 135.258 147.146 134.979 146.677C134.712 146.207 134.579 145.643 134.579 144.983C134.579 144.235 134.738 143.613 135.055 143.118C135.372 142.624 135.803 142.256 136.349 142.015C136.907 141.761 137.522 141.634 138.194 141.634H138.518C138.772 141.634 139.019 141.653 139.26 141.691C139.501 141.717 139.729 141.761 139.945 141.825H143.389V143.689L141.486 143.385C141.677 143.588 141.822 143.842 141.924 144.146C142.038 144.438 142.095 144.799 142.095 145.231C142.095 145.877 141.93 146.436 141.6 146.905C141.283 147.362 140.852 147.717 140.307 147.971C139.774 148.212 139.178 148.332 138.518 148.332H138.194C137.941 148.332 137.7 148.313 137.471 148.275C137.332 148.427 137.23 148.586 137.167 148.751C137.104 148.903 137.072 149.049 137.072 149.188C137.072 149.632 137.357 149.854 137.928 149.854H140.249C141.125 149.854 141.829 150.083 142.362 150.539C142.907 150.983 143.18 151.617 143.18 152.442ZM138.518 146.543C138.911 146.543 139.254 146.41 139.545 146.144C139.85 145.877 140.002 145.491 140.002 144.983C140.002 144.476 139.85 144.089 139.545 143.822C139.254 143.556 138.911 143.423 138.518 143.423H138.194C137.789 143.423 137.433 143.556 137.129 143.822C136.837 144.089 136.691 144.476 136.691 144.983C136.691 145.491 136.837 145.877 137.129 146.144C137.433 146.41 137.789 146.543 138.194 146.543H138.518ZM150.719 143.822C150.123 143.822 149.552 143.918 149.007 144.108C148.474 144.285 147.96 144.577 147.466 144.983V151.472H145.278V141.825H147.352V143.309C147.998 142.7 148.576 142.269 149.083 142.015C149.59 141.761 150.136 141.634 150.719 141.634V143.822ZM159.943 151.567C159.296 151.567 158.775 151.434 158.382 151.167C158.002 150.901 157.723 150.571 157.545 150.178C157 150.685 156.473 151.059 155.966 151.3C155.458 151.541 154.913 151.662 154.329 151.662C153.479 151.662 152.852 151.389 152.446 150.844C152.052 150.298 151.856 149.607 151.856 148.77C151.856 148.212 151.957 147.723 152.16 147.305C152.376 146.873 152.725 146.537 153.207 146.296C153.689 146.055 154.348 145.935 155.186 145.935C155.515 145.935 155.858 145.96 156.213 146.011C156.568 146.049 156.923 146.099 157.279 146.163V145.04C157.279 144.507 157.133 144.146 156.841 143.956C156.549 143.753 156.156 143.651 155.661 143.651C155.281 143.651 154.862 143.702 154.405 143.803C153.961 143.905 153.479 144.063 152.959 144.279L152.331 142.414C153.613 141.894 154.773 141.634 155.813 141.634C156.752 141.634 157.475 141.793 157.983 142.11C158.503 142.427 158.864 142.846 159.067 143.366C159.27 143.886 159.372 144.444 159.372 145.04V148.751C159.372 148.941 159.422 149.125 159.524 149.302C159.638 149.467 159.854 149.55 160.171 149.55H160.38V151.567H159.943ZM153.968 148.732C153.968 149.074 154.044 149.347 154.196 149.55C154.348 149.74 154.57 149.835 154.862 149.835C155.154 149.835 155.484 149.759 155.852 149.607C156.219 149.455 156.695 149.099 157.279 148.541V147.723C156.619 147.609 155.972 147.552 155.338 147.552C154.843 147.552 154.488 147.653 154.272 147.856C154.069 148.059 153.968 148.351 153.968 148.732ZM168.083 151.148C167.753 151.3 167.373 151.421 166.942 151.51C166.51 151.611 166.073 151.662 165.629 151.662C164.893 151.662 164.303 151.51 163.859 151.205C163.415 150.901 163.092 150.476 162.889 149.93C162.698 149.385 162.603 148.763 162.603 148.066V143.727H161.043V141.825H162.603V139.313H164.791V141.825H167.798V143.727H164.791V148.066C164.791 148.649 164.899 149.055 165.115 149.283C165.343 149.499 165.667 149.607 166.085 149.607C166.288 149.607 166.504 149.588 166.732 149.55C166.973 149.499 167.24 149.417 167.531 149.302L168.083 151.148ZM172.088 139.998H169.785V137.734H172.088V139.998ZM172.031 151.472H169.843V141.825H172.031V151.472ZM182.942 146.068V147.209C182.942 148.554 182.574 149.632 181.838 150.444C181.103 151.256 180.062 151.662 178.718 151.662C177.373 151.662 176.333 151.256 175.597 150.444C174.861 149.632 174.494 148.554 174.494 147.209V146.068C174.494 144.723 174.855 143.651 175.578 142.852C176.314 142.04 177.36 141.634 178.718 141.634C180.075 141.634 181.115 142.04 181.838 142.852C182.574 143.651 182.942 144.723 182.942 146.068ZM180.697 146.068C180.697 145.294 180.525 144.691 180.183 144.26C179.84 143.816 179.352 143.594 178.718 143.594C178.084 143.594 177.595 143.816 177.253 144.26C176.91 144.691 176.739 145.294 176.739 146.068V147.209C176.739 147.983 176.91 148.592 177.253 149.036C177.595 149.48 178.084 149.702 178.718 149.702C179.352 149.702 179.84 149.48 180.183 149.036C180.525 148.592 180.697 147.983 180.697 147.209V146.068ZM190.114 143.67C189.797 143.67 189.436 143.746 189.03 143.899C188.624 144.051 188.142 144.349 187.584 144.793V151.472H185.395V141.825H187.469V143.118C188.066 142.598 188.63 142.224 189.163 141.996C189.696 141.755 190.235 141.634 190.78 141.634C191.706 141.634 192.41 141.932 192.892 142.529C193.374 143.112 193.615 143.937 193.615 145.002V151.472H191.427V145.269C191.427 144.203 190.99 143.67 190.114 143.67Z" fill="white"/>
<defs>
<filter id="filter0_d_697_634" x="7.38702" y="0.310559" width="234.257" height="234.257" filterUnits="userSpaceOnUse" color-interpolation-filters="sRGB">
<feFlood flood-opacity="0" result="BackgroundImageFix"/>
<feColorMatrix in="SourceAlpha" type="matrix" values="0 0 0 0 0 0 0 0 0 0 0 0 0 0 0 0 0 0 127 0" result="hardAlpha"/>
<feOffset dx="3.42815" dy="15.4267"/>
<feGaussianBlur stdDeviation="8.57037"/>
<feComposite in2="hardAlpha" operator="out"/>
<feColorMatrix type="matrix" values="0 0 0 0 0 0 0 0 0 0 0 0 0 0 0 0 0 0 0.25 0"/>
<feBlend mode="normal" in2="BackgroundImageFix" result="effect1_dropShadow_697_634"/>
<feBlend mode="normal" in="SourceGraphic" in2="effect1_dropShadow_697_634" result="shape"/>
</filter>
</defs>
</svg>
