<svg width="242" height="235" viewBox="0 0 242 235" fill="none" xmlns="http://www.w3.org/2000/svg">
<g filter="url(#filter0_d_681_445)">
<circle cx="121.008" cy="102.288" r="99.9876" fill="#B02F36"/>
<circle cx="121.008" cy="102.288" r="98.5592" stroke="#A0A0A0" stroke-width="2.85679"/>
</g>
<path fill-rule="evenodd" clip-rule="evenodd" d="M124.388 42.45V32.0106H117.428V42.45H106.989C93.5359 42.45 82.6301 53.3558 82.6301 66.8088V97.705C82.6301 103.704 87.4931 108.567 93.4918 108.567C96.3725 108.567 99.1352 107.423 101.172 105.385L115.39 91.1676H126.426L140.644 105.385C142.681 107.423 145.444 108.567 148.325 108.567C154.323 108.567 159.186 103.704 159.186 97.705V66.8088C159.186 53.3558 148.28 42.45 134.827 42.45H124.388ZM152.227 66.8088C152.227 57.1995 144.437 49.4097 134.827 49.4097H106.989C97.3796 49.4097 89.5898 57.1995 89.5898 66.8088V97.705C89.5898 99.8602 91.3367 101.607 93.4918 101.607C94.5266 101.607 95.5191 101.196 96.2509 100.464L112.507 84.2079H129.309L145.565 100.464C146.297 101.196 147.29 101.607 148.325 101.607C150.48 101.607 152.227 99.8602 152.227 97.705V66.8088ZM96.5494 73.7685V66.8088H103.509V59.8492H110.469V66.8088H117.428V73.7685H110.469V80.7281H103.509V73.7685H96.5494ZM134.827 65.0689C134.827 67.9516 132.49 70.2886 129.608 70.2886C126.725 70.2886 124.388 67.9516 124.388 65.0689C124.388 62.1862 126.725 59.8492 129.608 59.8492C132.49 59.8492 134.827 62.1862 134.827 65.0689ZM140.047 80.7281C142.93 80.7281 145.267 78.3911 145.267 75.5084C145.267 72.6257 142.93 70.2886 140.047 70.2886C137.165 70.2886 134.827 72.6257 134.827 75.5084C134.827 78.3911 137.165 80.7281 140.047 80.7281Z" fill="white"/>
<path d="M60.6178 144.924C60.3007 145.114 59.7742 145.336 59.0385 145.59C58.3154 145.831 57.4655 145.952 56.4888 145.952C55.3852 145.952 54.4592 145.723 53.7107 145.267C52.975 144.81 52.4169 144.182 52.0363 143.383C51.6558 142.584 51.4655 141.67 51.4655 140.643V137.922C51.4655 136.869 51.6558 135.949 52.0363 135.163C52.4169 134.364 52.9814 133.742 53.7298 133.298C54.4909 132.854 55.4423 132.632 56.5839 132.632C57.1421 132.632 57.7192 132.696 58.3154 132.822C58.9116 132.937 59.5649 133.152 60.2753 133.469L59.5713 135.467C58.9497 135.226 58.4106 135.055 57.9539 134.954C57.5099 134.839 57.066 134.782 56.622 134.782C55.6325 134.782 54.9158 135.068 54.4719 135.639C54.0279 136.197 53.8059 136.958 53.8059 137.922V140.643C53.8059 141.556 54.0279 142.305 54.4719 142.888C54.9285 143.472 55.6389 143.763 56.603 143.763C56.8947 143.763 57.2118 143.738 57.5543 143.687C57.8968 143.636 58.2266 143.567 58.5438 143.478V140.643H56.4507V138.645H60.6178V144.924ZM70.5415 145.856C69.8945 145.856 69.3744 145.723 68.9812 145.457C68.6006 145.19 68.3216 144.861 68.144 144.467C67.5985 144.975 67.0721 145.349 66.5647 145.59C66.0573 145.831 65.5118 145.952 64.9283 145.952C64.0784 145.952 63.4505 145.679 63.0446 145.133C62.6513 144.588 62.4547 143.897 62.4547 143.059C62.4547 142.501 62.5562 142.013 62.7591 141.594C62.9748 141.163 63.3236 140.827 63.8057 140.586C64.2877 140.345 64.9473 140.224 65.7845 140.224C66.1144 140.224 66.4569 140.25 66.812 140.3C67.1672 140.338 67.5224 140.389 67.8776 140.453V139.33C67.8776 138.797 67.7317 138.436 67.44 138.245C67.1482 138.042 66.755 137.941 66.2602 137.941C65.8797 137.941 65.4611 137.992 65.0044 138.093C64.5604 138.195 64.0784 138.353 63.5583 138.569L62.9304 136.704C64.2116 136.184 65.3723 135.924 66.4125 135.924C67.3512 135.924 68.0742 136.082 68.5816 136.4C69.1017 136.717 69.4632 137.135 69.6662 137.655C69.8692 138.176 69.9706 138.734 69.9706 139.33V143.04C69.9706 143.231 70.0214 143.414 70.1229 143.592C70.237 143.757 70.4527 143.839 70.7698 143.839H70.9791V145.856H70.5415ZM64.5668 143.021C64.5668 143.364 64.6429 143.636 64.7951 143.839C64.9473 144.03 65.1693 144.125 65.4611 144.125C65.7528 144.125 66.0827 144.049 66.4505 143.897C66.8184 143.744 67.2941 143.389 67.8776 142.831V142.013C67.218 141.899 66.571 141.842 65.9368 141.842C65.4421 141.842 65.0869 141.943 64.8712 142.146C64.6683 142.349 64.5668 142.641 64.5668 143.021ZM75.0669 139.083V145.761H72.8788V136.114H74.9528V137.389C75.549 136.869 76.1008 136.495 76.6082 136.266C77.1156 136.038 77.6357 135.924 78.1684 135.924C79.3482 135.924 80.1537 136.444 80.585 137.484C81.2192 136.926 81.8091 136.526 82.3545 136.285C82.9 136.044 83.4518 135.924 84.0099 135.924C84.8979 135.924 85.5766 136.222 86.0459 136.818C86.5153 137.402 86.7499 138.226 86.7499 139.292V145.761H84.5617V139.558C84.5617 138.493 84.1558 137.96 83.344 137.96C83.0268 137.96 82.678 138.036 82.2974 138.188C81.9169 138.34 81.4539 138.639 80.9084 139.083V145.761H78.7202V139.558C78.7202 138.493 78.3143 137.96 77.5025 137.96C77.1853 137.96 76.8365 138.036 76.456 138.188C76.0754 138.34 75.6124 138.639 75.0669 139.083ZM91.8847 134.288H89.5824V132.023H91.8847V134.288ZM91.8276 145.761H89.6395V136.114H91.8276V145.761ZM99.5612 137.96C99.2441 137.96 98.8825 138.036 98.4766 138.188C98.0707 138.34 97.5887 138.639 97.0305 139.083V145.761H94.8423V136.114H96.9163V137.408C97.5125 136.888 98.077 136.514 98.6098 136.285C99.1426 136.044 99.6817 135.924 100.227 135.924C101.153 135.924 101.857 136.222 102.339 136.818C102.821 137.402 103.062 138.226 103.062 139.292V145.761H100.874V139.558C100.874 138.493 100.436 137.96 99.5612 137.96ZM113.965 146.732C113.965 147.759 113.559 148.558 112.747 149.129C111.948 149.713 110.832 150.004 109.398 150.004C108.726 150.004 108.016 149.928 107.267 149.776C106.519 149.624 105.827 149.37 105.193 149.015L105.821 147.283C106.43 147.588 107.032 147.804 107.629 147.93C108.225 148.07 108.808 148.14 109.379 148.14C110.178 148.14 110.787 148.032 111.206 147.816C111.624 147.601 111.834 147.315 111.834 146.96C111.834 146.415 111.51 146.142 110.863 146.142H108.58C107.958 146.142 107.457 146.04 107.077 145.837C106.696 145.634 106.417 145.374 106.24 145.057C106.062 144.727 105.973 144.385 105.973 144.03C105.973 143.662 106.049 143.319 106.202 143.002C106.366 142.672 106.588 142.368 106.868 142.089C106.411 141.81 106.043 141.436 105.764 140.966C105.498 140.497 105.364 139.932 105.364 139.273C105.364 138.524 105.523 137.903 105.84 137.408C106.157 136.913 106.588 136.545 107.134 136.304C107.692 136.051 108.307 135.924 108.98 135.924H109.303C109.557 135.924 109.804 135.943 110.045 135.981C110.286 136.006 110.514 136.051 110.73 136.114H114.174V137.979L112.271 137.674C112.462 137.877 112.608 138.131 112.709 138.436C112.823 138.727 112.88 139.089 112.88 139.52C112.88 140.167 112.715 140.725 112.386 141.195C112.068 141.651 111.637 142.006 111.092 142.26C110.559 142.501 109.963 142.622 109.303 142.622H108.98C108.726 142.622 108.485 142.603 108.257 142.565C108.117 142.717 108.016 142.875 107.952 143.04C107.889 143.192 107.857 143.338 107.857 143.478C107.857 143.922 108.142 144.144 108.713 144.144H111.035C111.91 144.144 112.614 144.372 113.147 144.829C113.692 145.273 113.965 145.907 113.965 146.732ZM109.303 140.833C109.696 140.833 110.039 140.7 110.331 140.433C110.635 140.167 110.787 139.78 110.787 139.273C110.787 138.765 110.635 138.378 110.331 138.112C110.039 137.846 109.696 137.713 109.303 137.713H108.98C108.574 137.713 108.218 137.846 107.914 138.112C107.622 138.378 107.476 138.765 107.476 139.273C107.476 139.78 107.622 140.167 107.914 140.433C108.218 140.7 108.574 140.833 108.98 140.833H109.303ZM126.779 140.795H122.441V145.761H120.157V132.822H127.35V135.011H122.441V138.607H126.779V140.795ZM136.433 145.209C135.773 145.476 135.151 145.666 134.568 145.78C133.984 145.894 133.433 145.952 132.913 145.952C131.479 145.952 130.395 145.546 129.659 144.734C128.923 143.922 128.555 142.844 128.555 141.499V140.357C128.555 139.457 128.72 138.677 129.05 138.017C129.38 137.357 129.849 136.844 130.458 136.476C131.067 136.108 131.784 135.924 132.608 135.924C133.28 135.924 133.908 136.063 134.492 136.343C135.088 136.609 135.57 137.034 135.938 137.617C136.319 138.188 136.509 138.924 136.509 139.825C136.509 140.091 136.49 140.376 136.452 140.681C136.414 140.973 136.35 141.283 136.261 141.613H130.667C130.693 142.4 130.889 142.99 131.257 143.383C131.625 143.776 132.215 143.973 133.027 143.973C133.458 143.973 133.902 143.922 134.359 143.82C134.828 143.719 135.31 143.567 135.805 143.364L136.433 145.209ZM132.608 137.77C132.025 137.77 131.568 137.96 131.238 138.34C130.921 138.708 130.737 139.241 130.686 139.939H134.34C134.352 139.875 134.359 139.818 134.359 139.768C134.359 139.704 134.359 139.647 134.359 139.596C134.359 138.987 134.187 138.531 133.845 138.226C133.502 137.922 133.09 137.77 132.608 137.77ZM146.336 145.856C145.689 145.856 145.169 145.723 144.776 145.457C144.395 145.19 144.116 144.861 143.939 144.467C143.393 144.975 142.867 145.349 142.359 145.59C141.852 145.831 141.307 145.952 140.723 145.952C139.873 145.952 139.245 145.679 138.839 145.133C138.446 144.588 138.25 143.897 138.25 143.059C138.25 142.501 138.351 142.013 138.554 141.594C138.77 141.163 139.118 140.827 139.6 140.586C140.083 140.345 140.742 140.224 141.579 140.224C141.909 140.224 142.252 140.25 142.607 140.3C142.962 140.338 143.317 140.389 143.672 140.453V139.33C143.672 138.797 143.527 138.436 143.235 138.245C142.943 138.042 142.55 137.941 142.055 137.941C141.674 137.941 141.256 137.992 140.799 138.093C140.355 138.195 139.873 138.353 139.353 138.569L138.725 136.704C140.006 136.184 141.167 135.924 142.207 135.924C143.146 135.924 143.869 136.082 144.376 136.4C144.897 136.717 145.258 137.135 145.461 137.655C145.664 138.176 145.765 138.734 145.765 139.33V143.04C145.765 143.231 145.816 143.414 145.918 143.592C146.032 143.757 146.247 143.839 146.565 143.839H146.774V145.856H146.336ZM140.362 143.021C140.362 143.364 140.438 143.636 140.59 143.839C140.742 144.03 140.964 144.125 141.256 144.125C141.548 144.125 141.877 144.049 142.245 143.897C142.613 143.744 143.089 143.389 143.672 142.831V142.013C143.013 141.899 142.366 141.842 141.732 141.842C141.237 141.842 140.882 141.943 140.666 142.146C140.463 142.349 140.362 142.641 140.362 143.021ZM154.477 145.438C154.147 145.59 153.767 145.71 153.335 145.799C152.904 145.901 152.466 145.952 152.022 145.952C151.287 145.952 150.697 145.799 150.253 145.495C149.809 145.19 149.485 144.765 149.282 144.22C149.092 143.675 148.997 143.053 148.997 142.355V138.017H147.437V136.114H148.997V133.603H151.185V136.114H154.192V138.017H151.185V142.355C151.185 142.939 151.293 143.345 151.509 143.573C151.737 143.789 152.06 143.897 152.479 143.897C152.682 143.897 152.898 143.877 153.126 143.839C153.367 143.789 153.633 143.706 153.925 143.592L154.477 145.438ZM161.983 145.761V144.486C161.399 144.994 160.854 145.368 160.346 145.609C159.839 145.837 159.325 145.952 158.805 145.952C157.942 145.952 157.276 145.66 156.807 145.076C156.338 144.48 156.103 143.649 156.103 142.584V136.114H158.291V142.317C158.291 143.383 158.685 143.916 159.471 143.916C159.788 143.916 160.131 143.839 160.499 143.687C160.879 143.535 161.336 143.243 161.869 142.812V136.114H164.057V145.761H161.983ZM172.511 138.112C171.915 138.112 171.344 138.207 170.799 138.398C170.266 138.575 169.752 138.867 169.258 139.273V145.761H167.069V136.114H169.143V137.598C169.79 136.989 170.368 136.558 170.875 136.304C171.382 136.051 171.928 135.924 172.511 135.924V138.112ZM181.753 145.209C181.094 145.476 180.472 145.666 179.889 145.78C179.305 145.894 178.753 145.952 178.233 145.952C176.8 145.952 175.715 145.546 174.98 144.734C174.244 143.922 173.876 142.844 173.876 141.499V140.357C173.876 139.457 174.041 138.677 174.371 138.017C174.701 137.357 175.17 136.844 175.779 136.476C176.388 136.108 177.104 135.924 177.929 135.924C178.601 135.924 179.229 136.063 179.813 136.343C180.409 136.609 180.891 137.034 181.259 137.617C181.639 138.188 181.83 138.924 181.83 139.825C181.83 140.091 181.811 140.376 181.772 140.681C181.734 140.973 181.671 141.283 181.582 141.613H175.988C176.013 142.4 176.21 142.99 176.578 143.383C176.946 143.776 177.536 143.973 178.348 143.973C178.779 143.973 179.223 143.922 179.679 143.82C180.149 143.719 180.631 143.567 181.126 143.364L181.753 145.209ZM177.929 137.77C177.345 137.77 176.889 137.96 176.559 138.34C176.242 138.708 176.058 139.241 176.007 139.939H179.66C179.673 139.875 179.679 139.818 179.679 139.768C179.679 139.704 179.679 139.647 179.679 139.596C179.679 138.987 179.508 138.531 179.166 138.226C178.823 137.922 178.411 137.77 177.929 137.77ZM187.052 144.049C187.522 144.049 187.909 143.973 188.213 143.82C188.518 143.656 188.67 143.414 188.67 143.097C188.67 142.818 188.568 142.603 188.365 142.45C188.175 142.286 187.826 142.14 187.319 142.013L186.234 141.727C185.397 141.512 184.775 141.15 184.369 140.643C183.976 140.135 183.78 139.533 183.78 138.835C183.78 138.011 184.065 137.319 184.636 136.761C185.207 136.203 186.088 135.924 187.281 135.924C187.763 135.924 188.27 135.981 188.803 136.095C189.336 136.209 189.894 136.393 190.477 136.647L189.849 138.512C189.317 138.258 188.835 138.08 188.403 137.979C187.972 137.877 187.591 137.827 187.262 137.827C186.361 137.827 185.911 138.131 185.911 138.74C185.911 138.981 185.987 139.171 186.139 139.311C186.304 139.45 186.602 139.577 187.033 139.691L188.118 139.977C189.044 140.218 189.716 140.586 190.135 141.08C190.566 141.575 190.782 142.197 190.782 142.945C190.782 143.833 190.477 144.556 189.868 145.114C189.272 145.672 188.327 145.952 187.033 145.952C185.93 145.952 184.769 145.698 183.551 145.19L184.141 143.383C184.737 143.624 185.276 143.795 185.758 143.897C186.241 143.998 186.672 144.049 187.052 144.049Z" fill="white"/>
<defs>
<filter id="filter0_d_681_445" x="7.30767" y="0.58582" width="234.257" height="234.257" filterUnits="userSpaceOnUse" color-interpolation-filters="sRGB">
<feFlood flood-opacity="0" result="BackgroundImageFix"/>
<feColorMatrix in="SourceAlpha" type="matrix" values="0 0 0 0 0 0 0 0 0 0 0 0 0 0 0 0 0 0 127 0" result="hardAlpha"/>
<feOffset dx="3.42815" dy="15.4267"/>
<feGaussianBlur stdDeviation="8.57037"/>
<feComposite in2="hardAlpha" operator="out"/>
<feColorMatrix type="matrix" values="0 0 0 0 0 0 0 0 0 0 0 0 0 0 0 0 0 0 0.4 0"/>
<feBlend mode="normal" in2="BackgroundImageFix" result="effect1_dropShadow_681_445"/>
<feBlend mode="normal" in="SourceGraphic" in2="effect1_dropShadow_681_445" result="shape"/>
</filter>
</defs>
</svg>
