<svg width="242" height="235" viewBox="0 0 242 235" fill="none" xmlns="http://www.w3.org/2000/svg">
<g filter="url(#filter0_d_681_440)">
<circle cx="120.652" cy="102.287" r="99.9876" fill="white"/>
<circle cx="120.652" cy="102.287" r="98.5592" stroke="#A0A0A0" stroke-width="2.85679"/>
</g>
<path d="M55.8532 141.653V143.841H47.5762V141.843L52.98 133.09H47.7664V130.902H55.6629V132.9L50.2591 141.653H55.8532ZM60.2826 132.367H57.9803V130.103H60.2826V132.367ZM60.2256 143.841H58.0374V134.194H60.2256V143.841ZM67.3693 144.031C67.0521 144.031 66.7287 144 66.3988 143.936C66.0817 143.873 65.7582 143.784 65.4284 143.67V147.894H63.2402V134.194H65.3143V135.507C65.9105 134.911 66.4179 134.511 66.8365 134.308C67.2551 134.105 67.6927 134.004 68.1494 134.004C69.2023 134.004 70.0141 134.397 70.5849 135.183C71.1558 135.97 71.4412 137.074 71.4412 138.494V139.522C71.4412 140.904 71.0923 142.002 70.3947 142.814C69.697 143.625 68.6885 144.031 67.3693 144.031ZM67.5595 136.04C67.2678 136.04 66.957 136.129 66.6272 136.306C66.31 136.471 65.9105 136.794 65.4284 137.277V141.691C66.05 141.945 66.6208 142.071 67.1409 142.071C67.8767 142.071 68.4031 141.843 68.7202 141.386C69.0373 140.93 69.1959 140.308 69.1959 139.522V138.494C69.1959 137.644 69.05 137.023 68.7583 136.63C68.4792 136.236 68.0796 136.04 67.5595 136.04ZM79.8257 138.723C79.8257 139.649 80.0287 140.41 80.4346 141.006C80.8405 141.589 81.5065 141.881 82.4325 141.881C82.813 141.881 83.2063 141.83 83.6122 141.729C84.0308 141.628 84.5446 141.456 85.1534 141.215L85.8575 143.194C85.1725 143.499 84.5382 143.714 83.9547 143.841C83.3839 143.968 82.8321 144.031 82.2993 144.031C81.2337 144.031 80.3394 143.803 79.6164 143.346C78.906 142.89 78.3732 142.262 78.0181 141.463C77.6629 140.663 77.4853 139.75 77.4853 138.723V136.002C77.4853 134.974 77.6629 134.061 78.0181 133.262C78.3732 132.463 78.906 131.841 79.6164 131.397C80.3394 130.94 81.2337 130.712 82.2993 130.712C82.8194 130.712 83.3585 130.775 83.9166 130.902C84.4748 131.016 85.0837 131.219 85.7433 131.511L85.0393 133.528C84.4558 133.287 83.9674 133.116 83.5741 133.014C83.1809 132.913 82.8004 132.862 82.4325 132.862C81.5065 132.862 80.8405 133.154 80.4346 133.737C80.0287 134.321 79.8257 135.076 79.8257 136.002V138.723ZM95.4788 138.437V139.579C95.4788 140.923 95.1109 142.002 94.3752 142.814C93.6394 143.625 92.5993 144.031 91.2546 144.031C89.91 144.031 88.8698 143.625 88.1341 142.814C87.3984 142.002 87.0305 140.923 87.0305 139.579V138.437C87.0305 137.093 87.392 136.021 88.1151 135.222C88.8508 134.41 89.8973 134.004 91.2546 134.004C92.6119 134.004 93.6521 134.41 94.3752 135.222C95.1109 136.021 95.4788 137.093 95.4788 138.437ZM93.2335 138.437C93.2335 137.663 93.0623 137.061 92.7198 136.63C92.3773 136.186 91.8889 135.964 91.2546 135.964C90.6204 135.964 90.132 136.186 89.7895 136.63C89.447 137.061 89.2758 137.663 89.2758 138.437V139.579C89.2758 140.353 89.447 140.962 89.7895 141.406C90.132 141.85 90.6204 142.071 91.2546 142.071C91.8889 142.071 92.3773 141.85 92.7198 141.406C93.0623 140.962 93.2335 140.353 93.2335 139.579V138.437ZM103.584 143.841V142.528C103 143.112 102.493 143.511 102.061 143.727C101.643 143.93 101.205 144.031 100.748 144.031C99.7082 144.031 98.8964 143.638 98.3129 142.852C97.742 142.065 97.4566 140.962 97.4566 139.541V138.513C97.4566 137.131 97.8055 136.033 98.5031 135.222C99.2008 134.41 100.209 134.004 101.529 134.004C101.858 134.004 102.182 134.035 102.499 134.099C102.829 134.162 103.152 134.251 103.469 134.365V129.761H105.658V143.841H103.584ZM99.7019 139.541C99.7019 140.391 99.8414 141.012 100.12 141.406C100.412 141.799 100.818 141.995 101.338 141.995C101.63 141.995 101.941 141.913 102.271 141.748C102.6 141.57 103 141.241 103.469 140.759V136.344C102.848 136.09 102.277 135.964 101.757 135.964C101.021 135.964 100.495 136.192 100.178 136.649C99.8604 137.105 99.7019 137.727 99.7019 138.513V139.541ZM115.998 143.289C115.339 143.556 114.717 143.746 114.133 143.86C113.55 143.974 112.998 144.031 112.478 144.031C111.045 144.031 109.96 143.625 109.224 142.814C108.489 142.002 108.121 140.923 108.121 139.579V138.437C108.121 137.537 108.286 136.756 108.615 136.097C108.945 135.437 109.415 134.923 110.024 134.556C110.632 134.188 111.349 134.004 112.174 134.004C112.846 134.004 113.474 134.143 114.057 134.422C114.654 134.689 115.136 135.114 115.503 135.697C115.884 136.268 116.074 137.004 116.074 137.904C116.074 138.171 116.055 138.456 116.017 138.761C115.979 139.052 115.916 139.363 115.827 139.693H110.233C110.258 140.48 110.455 141.069 110.823 141.463C111.191 141.856 111.78 142.052 112.592 142.052C113.024 142.052 113.468 142.002 113.924 141.9C114.394 141.799 114.876 141.647 115.37 141.444L115.998 143.289ZM112.174 135.849C111.59 135.849 111.133 136.04 110.804 136.42C110.487 136.788 110.303 137.321 110.252 138.019H113.905C113.918 137.955 113.924 137.898 113.924 137.847C113.924 137.784 113.924 137.727 113.924 137.676C113.924 137.067 113.753 136.611 113.41 136.306C113.068 136.002 112.656 135.849 112.174 135.849ZM125.182 130.902L128.798 139.75L132.394 130.902H134.887V143.841H132.698V138.894L132.984 134.365L129.768 142.319H127.732L124.593 134.346L124.878 138.894V143.841H122.69V130.902H125.182ZM145.487 143.936C144.84 143.936 144.32 143.803 143.927 143.537C143.546 143.27 143.267 142.94 143.089 142.547C142.544 143.055 142.018 143.429 141.51 143.67C141.003 143.911 140.457 144.031 139.874 144.031C139.024 144.031 138.396 143.759 137.99 143.213C137.597 142.668 137.4 141.976 137.4 141.139C137.4 140.581 137.502 140.093 137.705 139.674C137.92 139.243 138.269 138.907 138.751 138.666C139.233 138.425 139.893 138.304 140.73 138.304C141.06 138.304 141.402 138.329 141.757 138.38C142.113 138.418 142.468 138.469 142.823 138.532V137.41C142.823 136.877 142.677 136.515 142.385 136.325C142.094 136.122 141.7 136.021 141.206 136.021C140.825 136.021 140.407 136.071 139.95 136.173C139.506 136.274 139.024 136.433 138.504 136.649L137.876 134.784C139.157 134.264 140.318 134.004 141.358 134.004C142.297 134.004 143.02 134.162 143.527 134.479C144.047 134.797 144.409 135.215 144.612 135.735C144.815 136.255 144.916 136.814 144.916 137.41V141.12C144.916 141.31 144.967 141.494 145.068 141.672C145.182 141.837 145.398 141.919 145.715 141.919H145.925V143.936H145.487ZM139.512 141.101C139.512 141.444 139.588 141.716 139.741 141.919C139.893 142.11 140.115 142.205 140.407 142.205C140.698 142.205 141.028 142.129 141.396 141.976C141.764 141.824 142.24 141.469 142.823 140.911V140.093C142.163 139.978 141.516 139.921 140.882 139.921C140.388 139.921 140.032 140.023 139.817 140.226C139.614 140.429 139.512 140.721 139.512 141.101ZM151.953 144.031C151.636 144.031 151.313 144 150.983 143.936C150.666 143.873 150.342 143.784 150.012 143.67V147.894H147.824V134.194H149.898V135.507C150.494 134.911 151.002 134.511 151.42 134.308C151.839 134.105 152.277 134.004 152.733 134.004C153.786 134.004 154.598 134.397 155.169 135.183C155.74 135.97 156.025 137.074 156.025 138.494V139.522C156.025 140.904 155.676 142.002 154.979 142.814C154.281 143.625 153.272 144.031 151.953 144.031ZM152.143 136.04C151.852 136.04 151.541 136.129 151.211 136.306C150.894 136.471 150.494 136.794 150.012 137.277V141.691C150.634 141.945 151.205 142.071 151.725 142.071C152.461 142.071 152.987 141.843 153.304 141.386C153.621 140.93 153.78 140.308 153.78 139.522V138.494C153.78 137.644 153.634 137.023 153.342 136.63C153.063 136.236 152.664 136.04 152.143 136.04ZM162.693 144.031C162.376 144.031 162.053 144 161.723 143.936C161.406 143.873 161.082 143.784 160.753 143.67V147.894H158.564V134.194H160.638V135.507C161.235 134.911 161.742 134.511 162.161 134.308C162.579 134.105 163.017 134.004 163.474 134.004C164.526 134.004 165.338 134.397 165.909 135.183C166.48 135.97 166.765 137.074 166.765 138.494V139.522C166.765 140.904 166.417 142.002 165.719 142.814C165.021 143.625 164.013 144.031 162.693 144.031ZM162.884 136.04C162.592 136.04 162.281 136.129 161.951 136.306C161.634 136.471 161.235 136.794 160.753 137.277V141.691C161.374 141.945 161.945 142.071 162.465 142.071C163.201 142.071 163.727 141.843 164.044 141.386C164.362 140.93 164.52 140.308 164.52 139.522V138.494C164.52 137.644 164.374 137.023 164.082 136.63C163.803 136.236 163.404 136.04 162.884 136.04ZM171.55 132.367H169.248V130.103H171.55V132.367ZM171.493 143.841H169.305V134.194H171.493V143.841ZM179.226 136.04C178.909 136.04 178.548 136.116 178.142 136.268C177.736 136.42 177.254 136.718 176.696 137.162V143.841H174.508V134.194H176.582V135.488C177.178 134.968 177.742 134.594 178.275 134.365C178.808 134.124 179.347 134.004 179.892 134.004C180.818 134.004 181.522 134.302 182.004 134.898C182.486 135.482 182.728 136.306 182.728 137.372V143.841H180.539V137.638C180.539 136.572 180.102 136.04 179.226 136.04ZM193.63 144.811C193.63 145.839 193.224 146.638 192.412 147.209C191.613 147.792 190.497 148.084 189.063 148.084C188.391 148.084 187.681 148.008 186.932 147.856C186.184 147.704 185.493 147.45 184.858 147.095L185.486 145.363C186.095 145.668 186.698 145.883 187.294 146.01C187.89 146.15 188.474 146.22 189.044 146.22C189.844 146.22 190.452 146.112 190.871 145.896C191.29 145.68 191.499 145.395 191.499 145.04C191.499 144.494 191.175 144.222 190.529 144.222H188.245C187.624 144.222 187.123 144.12 186.742 143.917C186.361 143.714 186.082 143.454 185.905 143.137C185.727 142.807 185.638 142.465 185.638 142.11C185.638 141.742 185.715 141.399 185.867 141.082C186.032 140.752 186.254 140.448 186.533 140.169C186.076 139.89 185.708 139.515 185.429 139.046C185.163 138.577 185.03 138.012 185.03 137.353C185.03 136.604 185.188 135.983 185.505 135.488C185.822 134.993 186.254 134.625 186.799 134.384C187.357 134.131 187.972 134.004 188.645 134.004H188.968C189.222 134.004 189.469 134.023 189.71 134.061C189.951 134.086 190.18 134.131 190.395 134.194H193.839V136.059L191.937 135.754C192.127 135.957 192.273 136.211 192.374 136.515C192.488 136.807 192.545 137.169 192.545 137.6C192.545 138.247 192.381 138.805 192.051 139.274C191.734 139.731 191.302 140.086 190.757 140.34C190.224 140.581 189.628 140.701 188.968 140.701H188.645C188.391 140.701 188.15 140.682 187.922 140.644C187.782 140.797 187.681 140.955 187.617 141.12C187.554 141.272 187.522 141.418 187.522 141.558C187.522 142.002 187.808 142.224 188.378 142.224H190.7C191.575 142.224 192.279 142.452 192.812 142.909C193.357 143.353 193.63 143.987 193.63 144.811ZM188.968 138.913C189.362 138.913 189.704 138.78 189.996 138.513C190.3 138.247 190.452 137.86 190.452 137.353C190.452 136.845 190.3 136.458 189.996 136.192C189.704 135.926 189.362 135.792 188.968 135.792H188.645C188.239 135.792 187.884 135.926 187.579 136.192C187.287 136.458 187.142 136.845 187.142 137.353C187.142 137.86 187.287 138.247 187.579 138.513C187.884 138.78 188.239 138.913 188.645 138.913H188.968Z" fill="#414141"/>
<path fill-rule="evenodd" clip-rule="evenodd" d="M120.281 36.0122C124.039 35.9656 127.767 36.6918 131.233 38.1459C134.7 39.6 137.832 41.7511 140.436 44.4662C143.04 47.1812 145.06 50.4025 146.372 53.9308C147.683 57.459 148.258 61.2193 148.061 64.9791C147.803 69.8306 146.266 74.5271 143.607 78.5905C143.484 78.8423 143.331 79.078 143.15 79.2923L142.78 79.736C142.168 80.5719 141.509 81.3768 140.812 82.1405L123.258 103.55C122.936 103.943 122.531 104.259 122.072 104.476C121.614 104.693 121.113 104.806 120.605 104.806C120.098 104.806 119.597 104.693 119.138 104.476C118.68 104.259 118.275 103.943 117.953 103.55L99.9384 81.6451L99.9315 81.6382C99.572 81.2073 99.2183 80.7716 98.8705 80.3311L98.4138 79.7704C98.2376 79.5576 98.0877 79.3243 97.9674 79.0756C95.1537 74.9681 93.5066 70.1722 93.202 65.2C92.8973 60.2278 93.9466 55.2661 96.2377 50.8448C98.5288 46.4234 101.976 42.7085 106.21 40.0967C110.445 37.4849 115.308 36.0743 120.281 36.0156V36.0122ZM130.905 63.5412C130.93 64.912 130.682 66.2741 130.176 67.5478C129.669 68.8216 128.915 69.9814 127.956 70.9597C126.997 71.938 125.853 72.7151 124.591 73.2455C123.329 73.776 121.974 74.0492 120.605 74.0492C119.237 74.0492 117.882 73.776 116.62 73.2455C115.358 72.7151 114.214 71.938 113.255 70.9597C112.296 69.9814 111.541 68.8216 111.035 67.5478C110.528 66.2741 110.28 64.912 110.305 63.5412C110.355 60.8374 111.461 58.261 113.388 56.3663C115.314 54.4716 117.906 53.4101 120.605 53.4101C123.305 53.4101 125.897 54.4716 127.823 56.3663C129.749 58.261 130.856 60.8374 130.905 63.5412Z" fill="#B02F36"/>
<defs>
<filter id="filter0_d_681_440" x="6.95147" y="0.58579" width="234.257" height="234.257" filterUnits="userSpaceOnUse" color-interpolation-filters="sRGB">
<feFlood flood-opacity="0" result="BackgroundImageFix"/>
<feColorMatrix in="SourceAlpha" type="matrix" values="0 0 0 0 0 0 0 0 0 0 0 0 0 0 0 0 0 0 127 0" result="hardAlpha"/>
<feOffset dx="3.42815" dy="15.4267"/>
<feGaussianBlur stdDeviation="8.57037"/>
<feComposite in2="hardAlpha" operator="out"/>
<feColorMatrix type="matrix" values="0 0 0 0 0 0 0 0 0 0 0 0 0 0 0 0 0 0 0.25 0"/>
<feBlend mode="normal" in2="BackgroundImageFix" result="effect1_dropShadow_681_440"/>
<feBlend mode="normal" in="SourceGraphic" in2="effect1_dropShadow_681_440" result="shape"/>
</filter>
</defs>
</svg>
